<?xml version="1.0" standalone="no"?>
<!DOCTYPE svg PUBLIC "-//W3C//DTD SVG 1.1//EN" "http://www.w3.org/Graphics/SVG/1.1/DTD/svg11.dtd" >
<svg xmlns="http://www.w3.org/2000/svg" xmlns:xlink="http://www.w3.org/1999/xlink" version="1.1">
<metadata>
Created by FontForge 20170924 at Fri Jan 14 18:15:18 2005
 By www-data
Digitized data (c) 1991 The Monotype Corporation. All rights reserved.
</metadata>
<defs>
<font id="FelixTitlingMTStd" horiz-adv-x="500" >
  <font-face 
    font-family="Felix Titling MT Std"
    font-weight="500"
    font-stretch="normal"
    units-per-em="1000"
    panose-1="2 2 5 2 7 2 1 2 3 0"
    ascent="719"
    descent="-281"
    x-height="719"
    cap-height="719"
    bbox="-81 -241 1029 928"
    underline-thickness="50"
    underline-position="-100"
    stemh="20"
    stemv="84"
    unicode-range="U+0020-FB02"
  />
<missing-glyph 
d="M12 0v665h475v-665h-475zM88 618l162 -243l161 243h-323zM60 575v-484c0 -1 161 242 161 242zM440 575l-162 -242l162 -243v485zM411 48l-161 242l-162 -242h323z" />
    <glyph glyph-name="fi" unicode="fi" horiz-adv-x="760" 
d="M36 712v7h455v-84h-7c0 1 -1 4 -1 6c-12 48 -33 54 -81 54h-232v-317h216c27 0 47 0 50 24h7v-69h-7c-2 10 -5 25 -32 25h-234v-298c0 -44 18 -53 55 -53v-7h-189v7c39 0 51 11 51 48v592c0 57 -18 65 -51 65zM726 719v-7c-51 0 -55 -15 -55 -55v-572c0 -57 0 -78 55 -78
v-7h-192v7c52 0 54 15 54 77v567c0 42 -12 61 -54 61v7h192z" />
    <glyph glyph-name="fl" unicode="fl" horiz-adv-x="1042" 
d="M36 712v7h455v-84h-7c0 1 -1 4 -1 6c-12 48 -33 54 -81 54h-232v-317h216c27 0 47 0 50 24h7v-69h-7c-2 10 -5 25 -32 25h-234v-287c0 -51 8 -64 55 -64v-7h-189v7c39 0 51 11 51 48v592c0 54 -15 65 -51 65zM512 0v7c49 0 54 20 54 56v589c0 49 -10 60 -55 60v7h193v-7
c-50 0 -55 -20 -55 -65v-505c0 -89 40 -118 138 -118h88c99 0 121 52 126 149h7v-173h-496z" />
    <glyph glyph-name=".notdef" 
d="M12 0v665h475v-665h-475zM88 618l162 -243l161 243h-323zM60 575v-484c0 -1 161 242 161 242zM440 575l-162 -242l162 -243v485zM411 48l-161 242l-162 -242h323z" />
    <glyph glyph-name="space" unicode=" " horiz-adv-x="250" 
 />
    <glyph glyph-name="exclam" unicode="!" horiz-adv-x="167" 
d="M139 719l-25 -270c-2 -18 -5 -38 -9 -62c-7 -41 -7 -49 -15 -125c-3 -28 -3 -32 -3 -53v-19h-9c-1 12 -1 16 -2 49c-2 24 -5 70 -7 105c-1 16 -8 142 -9 170c-1 5 -2 22 -2 38l-2 29c-9 124 -7 129 -51 129v9h134zM83 -11c-30 0 -53 24 -53 53s23 53 53 53
c29 0 53 -23 53 -53c0 -29 -24 -53 -53 -53z" />
    <glyph glyph-name="quotedbl" unicode="&#x22;" 
d="M12 0v665h475v-665h-475zM88 618l162 -243l161 243h-323zM60 575v-484c0 -1 161 242 161 242zM440 575l-162 -242l162 -243v485zM411 48l-161 242l-162 -242h323z" />
    <glyph glyph-name="numbersign" unicode="#" 
d="M12 0v665h475v-665h-475zM88 618l162 -243l161 243h-323zM60 575v-484c0 -1 161 242 161 242zM440 575l-162 -242l162 -243v485zM411 48l-161 242l-162 -242h323z" />
    <glyph glyph-name="dollar" unicode="$" horiz-adv-x="490" 
d="M416 667l26 -98h-9c-63 116 -141 127 -170 131v-298c93 -23 213 -77 213 -214c0 -92 -65 -185 -214 -197v-106h-20v105c-68 0 -131 18 -191 47l-37 160h8c38 -114 131 -176 220 -182l1 313l-7 2c-69 26 -100 38 -133 70c-38 36 -61 92 -61 141c0 91 73 178 201 178v51h21
v-51c64 -7 114 -28 152 -52zM243 409v292c-62 3 -157 -30 -157 -131c0 -104 91 -137 150 -159zM263 322l-1 -307c80 0 169 58 169 152c0 84 -62 122 -168 155z" />
    <glyph glyph-name="percent" unicode="%" horiz-adv-x="802" 
d="M5 523c0 126 68 210 162 210c67 0 147 -43 147 -179c0 -111 -59 -208 -161 -208c-80 0 -148 59 -148 177zM256 508c0 139 -52 205 -105 205c-37 0 -89 -28 -89 -144c0 -129 52 -203 107 -203c30 0 87 25 87 142zM488 171c0 126 69 210 163 210c67 0 146 -43 146 -179
c0 -111 -59 -207 -160 -207c-80 0 -149 58 -149 176zM740 156c0 139 -52 205 -106 205c-36 0 -88 -28 -88 -144c0 -129 51 -203 107 -203c30 0 87 25 87 142zM149 0l470 731l32 -12l-469 -731z" />
    <glyph glyph-name="ampersand" unicode="&#x26;" horiz-adv-x="906" 
d="M474 683l31 -82h-10c-35 46 -113 109 -196 109c-68 0 -92 -48 -92 -84c0 -50 51 -109 96 -154l319 -315c59 80 63 234 63 240c0 45 -24 46 -59 48c-2 1 -6 1 -7 1l-16 -1v8l153 1v-9c-37 3 -41 -24 -50 -85s-23 -147 -70 -217l74 -73c31 -27 62 -53 108 -53
c23 0 52 8 82 25l5 -7c-16 -12 -69 -46 -142 -46c-26 0 -51 3 -83 20c-24 13 -57 36 -64 46c-1 3 -3 5 -5 7l-24 23c-20 -21 -106 -96 -263 -96c-121 0 -180 32 -228 77c-52 49 -78 113 -78 176c0 99 61 196 191 221c-17 24 -52 70 -52 129c0 61 39 138 159 138
c70 0 113 -22 158 -47zM573 98l-274 266c-2 2 -4 4 -6 5c-3 3 -12 12 -48 51c-7 7 -18 21 -22 27c-34 -8 -147 -33 -147 -147c0 -130 142 -274 311 -274c97 0 140 35 179 67c2 1 6 4 7 5z" />
    <glyph glyph-name="quoteright" unicode="&#x2019;" horiz-adv-x="167" 
d="M20 461l-3 4c79 57 86 125 86 147c0 6 -3 19 -11 19c-1 0 -6 -1 -10 -2c-5 -1 -9 -2 -11 -2c-26 0 -53 20 -53 50c0 27 21 53 55 53c39 0 75 -35 75 -98c0 -104 -90 -151 -128 -171z" />
    <glyph glyph-name="parenleft" unicode="(" horiz-adv-x="365" 
d="M319 730l17 -27c-62 -34 -265 -147 -265 -460c0 -310 206 -424 265 -457l-17 -27c-121 57 -281 211 -281 488c0 182 78 379 281 483z" />
    <glyph glyph-name="parenright" unicode=")" horiz-adv-x="365" 
d="M46 -241l-17 27c62 34 265 147 265 460c0 310 -206 424 -265 457l17 27c121 -57 281 -211 281 -488c0 -182 -78 -379 -281 -483z" />
    <glyph glyph-name="asterisk" unicode="*" horiz-adv-x="354" 
d="M180 377h-7l-33 115l-115 -28l-3 7l80 85l-80 85l4 5l112 -28l36 113h7l32 -113l114 30l4 -6l-81 -88l81 -86l-4 -7l-113 31zM177 614c-32 0 -59 -26 -59 -59c0 -32 26 -58 59 -58c32 0 58 26 58 58c0 33 -26 59 -58 59z" />
    <glyph glyph-name="plus" unicode="+" 
d="M12 0v665h475v-665h-475zM88 618l162 -243l161 243h-323zM60 575v-484c0 -1 161 242 161 242zM440 575l-162 -242l162 -243v485zM411 48l-161 242l-162 -242h323z" />
    <glyph glyph-name="comma" unicode="," horiz-adv-x="167" 
d="M21 -177l-4 4c80 57 86 125 86 147c0 6 -2 19 -10 19c-2 0 -7 -1 -11 -2c-5 -1 -9 -2 -11 -2c-25 0 -53 20 -53 50c0 27 21 53 55 53c39 0 75 -35 75 -98c0 -104 -89 -151 -127 -171z" />
    <glyph glyph-name="hyphen" unicode="-" horiz-adv-x="250" 
d="M22 339v41h206v-41h-206z" />
    <glyph glyph-name="period" unicode="." horiz-adv-x="167" 
d="M83 96c30 0 53 -24 53 -53s-23 -53 -53 -53c-29 0 -53 23 -53 53c0 29 24 53 53 53z" />
    <glyph glyph-name="slash" unicode="/" horiz-adv-x="281" 
d="M287 717h66l-359 -717h-66z" />
    <glyph glyph-name="zero" unicode="0" horiz-adv-x="582" 
d="M39 329c0 232 107 404 267 404c80 0 147 -48 182 -107c23 -38 56 -109 56 -238c0 -210 -97 -399 -263 -399c-130 0 -242 113 -242 340zM466 300c0 218 -61 407 -194 407c-16 0 -155 -5 -155 -290c0 -214 68 -402 197 -402c46 0 90 40 113 84c19 36 39 91 39 201z" />
    <glyph glyph-name="one" unicode="1" horiz-adv-x="260" 
d="M36 652l129 80h8v-666c0 -49 9 -59 62 -59v-7h-202v7c47 1 63 3 63 66v538c0 21 0 46 -23 46c-9 0 -21 -4 -37 -12v7z" />
    <glyph glyph-name="two" unicode="2" horiz-adv-x="542" 
d="M529 113l-33 -113h-473v18c33 27 100 80 149 129c70 70 114 125 141 172c60 105 63 167 63 204c0 136 -86 182 -152 182c-85 0 -159 -70 -192 -132l-19 10c29 46 90 148 239 148c134 0 211 -95 211 -197c0 -90 -57 -200 -261 -392l-83 -78h301c53 0 64 2 99 49h10z" />
    <glyph glyph-name="three" unicode="3" horiz-adv-x="563" 
d="M70 580l26 97c83 50 138 53 180 53c157 0 195 -80 195 -136c0 -97 -99 -148 -145 -171v-2c135 -19 176 -128 176 -203c0 -139 -121 -228 -246 -228c-105 0 -174 52 -222 94v26c51 -41 117 -94 206 -94c95 0 179 69 179 180c0 88 -59 174 -186 174c-27 0 -43 -3 -54 -5v20
c2 1 8 3 10 3c70 19 199 54 199 184c0 83 -54 139 -129 139c-97 0 -153 -89 -181 -132z" />
    <glyph glyph-name="four" unicode="4" horiz-adv-x="542" 
d="M527 257h-132v-184c0 -47 4 -66 49 -66h13v-7h-207v7h13c41 0 55 6 55 65v185h-306l352 475h32v-434h84c32 0 37 4 38 22h9v-63zM65 297h253v337l-2 2z" />
    <glyph glyph-name="five" unicode="5" horiz-adv-x="563" 
d="M149 655l-27 -203c60 28 126 28 137 28c146 0 249 -96 249 -237c0 -131 -106 -253 -259 -253c-92 0 -161 40 -224 89v23l11 -7c65 -38 118 -68 192 -68c139 0 203 110 203 196c0 84 -57 174 -185 174c-62 0 -130 -25 -161 -40l46 362h326c23 0 40 0 48 18l8 1l-23 -82z
" />
    <glyph glyph-name="six" unicode="6" horiz-adv-x="582" 
d="M452 732l5 -13c-66 -15 -152 -38 -229 -122c-62 -67 -98 -156 -104 -246l2 -2c47 87 132 117 197 117c122 0 221 -98 221 -233c0 -136 -107 -243 -238 -243c-146 0 -268 126 -268 302c0 185 118 396 414 440zM128 282c0 -114 93 -264 211 -264c89 0 137 75 137 146
c0 109 -78 260 -203 260c-83 0 -145 -72 -145 -142z" />
    <glyph glyph-name="seven" unicode="7" horiz-adv-x="542" 
d="M13 596l20 123h494l-345 -728h-52l315 665h-276c-122 0 -138 -30 -148 -61z" />
    <glyph glyph-name="eight" unicode="8" horiz-adv-x="582" 
d="M247 377c-93 58 -93 58 -115 84c-24 28 -39 62 -39 100c0 73 62 171 213 171c138 0 193 -72 193 -144c0 -106 -116 -163 -152 -180c80 -48 185 -110 185 -223c0 -122 -115 -195 -250 -195c-127 0 -232 64 -232 177c0 75 39 136 197 210zM326 420c56 30 100 81 100 147
c0 84 -69 139 -148 139c-59 0 -136 -30 -136 -108c0 -60 49 -92 71 -107c37 -25 74 -50 113 -71zM278 361l-9 5c-67 -32 -144 -83 -144 -172c0 -85 76 -182 182 -182c71 0 160 50 160 143c0 96 -82 147 -189 206z" />
    <glyph glyph-name="nine" unicode="9" horiz-adv-x="582" 
d="M130 -10l-5 14c66 15 152 37 229 121c62 68 98 156 104 246l-2 2c-47 -87 -132 -116 -197 -116c-122 0 -221 98 -221 233s107 242 238 242c146 0 268 -125 268 -301c0 -185 -118 -396 -414 -441zM454 441c0 113 -93 264 -211 264c-89 0 -137 -76 -137 -146
c0 -110 78 -260 203 -260c83 0 145 72 145 142z" />
    <glyph glyph-name="colon" unicode=":" horiz-adv-x="167" 
d="M83 96c30 0 53 -24 53 -53s-23 -53 -53 -53c-29 0 -53 23 -53 53c0 29 24 53 53 53zM83 490c30 0 53 -24 53 -53s-23 -53 -53 -53c-29 0 -53 23 -53 53c0 29 24 53 53 53z" />
    <glyph glyph-name="semicolon" unicode=";" horiz-adv-x="167" 
d="M21 -177l-4 4c80 57 86 125 86 147c0 6 -2 19 -10 19c-2 0 -7 -1 -11 -2c-5 -1 -9 -2 -11 -2c-25 0 -53 20 -53 50c0 27 21 53 55 53c39 0 75 -35 75 -98c0 -104 -89 -151 -127 -171zM83 490c30 0 53 -24 53 -53s-23 -53 -53 -53c-29 0 -53 23 -53 53c0 29 24 53 53 53z
" />
    <glyph glyph-name="less" unicode="&#x3c;" 
d="M12 0v665h475v-665h-475zM88 618l162 -243l161 243h-323zM60 575v-484c0 -1 161 242 161 242zM440 575l-162 -242l162 -243v485zM411 48l-161 242l-162 -242h323z" />
    <glyph glyph-name="equal" unicode="=" 
d="M12 0v665h475v-665h-475zM88 618l162 -243l161 243h-323zM60 575v-484c0 -1 161 242 161 242zM440 575l-162 -242l162 -243v485zM411 48l-161 242l-162 -242h323z" />
    <glyph glyph-name="greater" unicode="&#x3e;" 
d="M12 0v665h475v-665h-475zM88 618l162 -243l161 243h-323zM60 575v-484c0 -1 161 242 161 242zM440 575l-162 -242l162 -243v485zM411 48l-161 242l-162 -242h323z" />
    <glyph glyph-name="question" unicode="?" horiz-adv-x="354" 
d="M129 188l-10 252c95 16 157 64 157 144c0 60 -44 127 -124 127c-55 0 -110 -30 -136 -92h-8l23 85c58 24 94 26 120 26c132 0 191 -85 191 -175c0 -123 -101 -161 -132 -173c-58 -22 -58 -26 -61 -63l-10 -131h-10zM135 95c30 0 53 -24 53 -53s-23 -53 -53 -53
c-29 0 -53 23 -53 53c0 29 24 53 53 53z" />
    <glyph glyph-name="at" unicode="@" 
d="M12 0v665h475v-665h-475zM88 618l162 -243l161 243h-323zM60 575v-484c0 -1 161 242 161 242zM440 575l-162 -242l162 -243v485zM411 48l-161 242l-162 -242h323z" />
    <glyph glyph-name="A" unicode="A" horiz-adv-x="688" 
d="M418 331h-210l-109 -272c-2 -5 -5 -12 -5 -13c-5 -11 -6 -16 -6 -23c0 -17 16 -16 24 -16v-7h-107v7c43 1 54 30 68 65l261 658h12l257 -636c0 -1 1 -5 3 -8l4 -11c10 -27 28 -68 73 -68v-7h-168v7c22 0 23 16 23 18c0 10 -6 27 -11 39c-2 4 -4 10 -5 11zM215 351h194
l-97 245z" />
    <glyph glyph-name="B" unicode="B" horiz-adv-x="583" 
d="M41 712v7h187c75 0 119 -2 158 -20c59 -27 99 -83 99 -151c0 -93 -69 -132 -90 -144c27 -5 65 -12 100 -46c20 -19 57 -63 57 -142c0 -97 -53 -161 -95 -188c-43 -28 -95 -28 -139 -28h-278v7c52 0 52 20 52 82v542c0 64 0 79 -51 81zM175 704v-316h87
c139 0 147 120 147 152c0 82 -39 123 -85 144s-100 20 -130 20h-19zM231 373h-56v-228c0 -71 0 -126 145 -126c25 0 63 1 95 20s58 58 58 134c0 97 -42 178 -115 193c-25 5 -58 7 -127 7z" />
    <glyph glyph-name="C" unicode="C" horiz-adv-x="771" 
d="M658 683l27 -76h-7c-31 31 -116 104 -246 104c-220 0 -328 -157 -328 -299c0 -130 90 -404 378 -404c108 0 225 38 275 96l6 -2l-50 -77c-125 -28 -160 -36 -256 -36c-152 0 -234 34 -290 75c-78 57 -131 162 -131 280c0 185 138 386 410 386c90 0 150 -22 204 -44
c1 0 7 -2 8 -3z" />
    <glyph glyph-name="D" unicode="D" horiz-adv-x="844" 
d="M38 712v7h330c189 0 258 -35 305 -66c79 -52 139 -146 139 -272c0 -155 -95 -283 -193 -339c-57 -33 -128 -42 -243 -42h-338v7h9c32 0 43 19 43 98v524c0 66 -2 82 -52 83zM283 704h-110v-558c0 -82 24 -127 194 -127c126 0 205 26 265 83c61 58 101 159 101 247
c0 108 -58 261 -243 325c-86 30 -169 30 -207 30z" />
    <glyph glyph-name="E" unicode="E" horiz-adv-x="542" 
d="M39 711v8h452v-99h-7c-21 75 -21 75 -74 75h-237v-323h220c28 0 48 0 51 24h7v-68h-7c-5 24 -22 24 -45 24h-226v-222c0 -102 26 -106 100 -106h127c87 0 114 0 124 75h7v-99h-492v7c28 2 51 3 51 51v581c0 53 -2 72 -51 72z" />
    <glyph glyph-name="F" unicode="F" 
d="M36 712v7h455v-84h-7c0 1 -1 4 -1 6c-12 48 -33 54 -81 54h-232v-317h216c27 0 47 0 50 24h7v-69h-7c-2 10 -5 25 -32 25h-234v-287c0 -51 9 -63 55 -64v-7h-189v7c39 0 51 11 51 48v592c0 57 -18 65 -51 65z" />
    <glyph glyph-name="G" unicode="G" horiz-adv-x="760" 
d="M743 7v-7h-290c-53 0 -141 0 -234 58c-112 70 -186 186 -186 308c0 161 145 364 406 364c78 0 150 -17 224 -47l30 -83h-7c-50 63 -142 111 -248 111c-204 0 -317 -178 -317 -365c0 -173 96 -253 146 -281c78 -44 188 -46 204 -46l39 1c81 2 98 5 98 62v109
c0 46 -22 53 -51 52v7h186v-7c-49 -1 -52 -23 -52 -59v-113c0 -44 9 -64 42 -64h10z" />
    <glyph glyph-name="H" unicode="H" horiz-adv-x="740" 
d="M567 359h-395v-277c0 -48 0 -76 52 -75v-7h-186v7c19 -1 51 0 51 49v579c0 64 -2 74 -51 77v7h186v-7c-23 -1 -52 -1 -52 -52v-281h395v257c0 53 0 76 -50 76v7h184v-7c-51 -1 -51 -18 -51 -76v-552c0 -52 0 -77 51 -77v-7h-184v7c41 2 50 7 50 78v274z" />
    <glyph glyph-name="I" unicode="I" horiz-adv-x="260" 
d="M226 719v-7c-10 1 -54 2 -54 -38c-1 -6 -1 -32 -1 -37v-552c0 -57 0 -79 55 -78v-7h-192v7c52 2 54 15 54 77v547c0 53 0 84 -54 81v7h192z" />
    <glyph glyph-name="J" unicode="J" horiz-adv-x="260" 
d="M34 719h193v-7c-54 -1 -55 -24 -55 -64v-612c0 -61 -4 -138 -12 -161c-6 -18 -17 -47 -41 -71s-58 -45 -112 -45c-44 0 -75 11 -88 15l1 8c8 -2 21 -4 39 -4c65 0 99 38 115 84c18 51 15 104 15 121v662c0 43 -1 68 -55 67v7z" />
    <glyph glyph-name="K" unicode="K" horiz-adv-x="823" 
d="M29 719h206v-7c-56 2 -61 -18 -61 -70v-276l427 321c4 3 13 9 13 16c0 11 -23 9 -29 9v7h155v-7c-38 -1 -74 -13 -114 -43l-372 -278l371 -282c2 -1 4 -3 5 -3c18 -13 39 -28 48 -34c62 -41 92 -65 141 -65v-7h-245v7c14 0 33 -1 33 7c0 6 -13 17 -27 27l-406 309v-267
c0 -52 0 -80 60 -76v-7h-205v7c60 -3 62 20 62 73v558c0 62 -6 76 -62 74v7z" />
    <glyph glyph-name="L" unicode="L" horiz-adv-x="542" 
d="M12 0v7c49 0 54 20 54 56v589c0 54 -15 59 -55 60v7h193v-7c-55 1 -55 -25 -55 -65v-505c0 -89 40 -118 138 -118h88c99 0 121 52 126 149h7v-173h-496z" />
    <glyph glyph-name="M" unicode="M" horiz-adv-x="885" 
d="M697 719h113v-7c-48 -2 -57 -31 -57 -60c0 -9 2 -25 3 -34l75 -545c8 -56 19 -63 51 -66v-7h-162v7c28 -1 32 17 32 31c0 5 0 8 -3 29l-73 528h-2l-256 -595h-5l-257 594h-2l-73 -531c-2 -9 -2 -19 -2 -28c0 -10 0 -28 33 -28v-7h-110v7c32 1 41 2 49 56l82 581l-11 24
c-21 46 -57 44 -68 44v7h136l253 -588z" />
    <glyph glyph-name="N" unicode="N" horiz-adv-x="802" 
d="M629 719h139v-7c-40 -1 -56 -11 -56 -66v-655l-574 611v-532c0 -57 13 -59 52 -63v-7h-138v7c55 2 55 18 55 76v487c0 49 0 146 -100 142v7h135l539 -574v508c0 53 -21 59 -52 59v7z" />
    <glyph glyph-name="O" unicode="O" horiz-adv-x="813" 
d="M780 408c0 -221 -146 -419 -407 -419c-208 0 -340 155 -340 332c0 180 130 409 403 409c209 0 344 -145 344 -322zM735 320c0 233 -224 372 -366 372c-132 0 -281 -110 -281 -281c0 -201 165 -384 345 -384c154 0 302 129 302 293z" />
    <glyph glyph-name="P" unicode="P" horiz-adv-x="531" 
d="M40 712v7h205c71 0 254 0 254 -181c0 -134 -105 -183 -234 -181v7c84 0 154 53 154 152c0 62 -24 123 -75 155c-22 14 -51 24 -119 24h-51v-616c0 -61 5 -71 56 -72v-7h-190v7c23 1 51 4 51 46v596c0 38 0 63 -51 63z" />
    <glyph glyph-name="Q" unicode="Q" horiz-adv-x="813" 
d="M492 -5l2 -2c130 -95 254 -185 404 -185c28 0 43 3 56 5l1 -6c-56 -26 -118 -34 -137 -34c-101 0 -296 80 -443 216c-47 0 -148 2 -241 91c-65 63 -101 150 -101 240c0 180 130 410 403 410c209 0 344 -145 344 -323c0 -145 -74 -351 -298 -405c5 -4 6 -5 10 -7zM735 319
c0 233 -224 373 -366 373c-132 0 -281 -110 -281 -281c0 -201 165 -385 345 -385c154 0 302 129 302 293z" />
    <glyph glyph-name="R" unicode="R" horiz-adv-x="792" 
d="M39 712v7h204c78 0 112 0 153 -13c61 -19 104 -67 104 -146c0 -84 -61 -153 -126 -188l51 -78l4 -7c10 -18 95 -142 151 -206c15 -18 61 -58 119 -58c26 0 38 5 49 10c16 7 28 15 34 18l3 -10c-21 -16 -35 -24 -55 -32c-18 -7 -55 -16 -97 -16c-38 0 -91 9 -141 70
c-54 66 -120 164 -122 167c0 2 -2 4 -2 5l-72 111l-27 -1c-6 -1 -32 -1 -37 -1h-58v-275c0 -57 17 -61 51 -62v-7h-186v7c46 2 52 13 52 68v572c0 60 -18 64 -52 65zM174 700v-337h75c26 0 78 7 102 20c35 19 73 62 73 132c0 45 -16 100 -55 140c-29 29 -67 45 -136 45h-59z
" />
    <glyph glyph-name="S" unicode="S" horiz-adv-x="479" 
d="M384 710l34 -90l-6 -1c-1 2 -6 7 -7 8c-27 31 -73 80 -161 80c-108 0 -160 -74 -160 -144c0 -96 84 -119 160 -143c68 -21 213 -64 213 -216c0 -102 -65 -204 -226 -204h-206v209h7c1 -110 34 -186 198 -186c163 0 187 107 187 148c0 80 -63 124 -179 159
c-127 38 -191 97 -191 203c0 91 68 197 208 197c52 0 89 -10 121 -18c2 0 7 -2 8 -2z" />
    <glyph glyph-name="T" unicode="T" horiz-adv-x="604" 
d="M605 744l-34 -87h-7c3 10 2 15 2 21c0 19 -20 18 -34 18h-188v-616c0 -57 5 -74 57 -73v-7h-195v7c45 4 55 9 55 63v626h-180c-32 0 -44 0 -44 -19c0 -5 1 -9 4 -20h-7l-34 87h7c6 -12 12 -19 19 -22c8 -3 19 -3 35 -3h478c29 0 49 -2 59 25h7z" />
    <glyph glyph-name="U" unicode="U" horiz-adv-x="750" 
d="M709 0h-136v111c-100 -112 -204 -116 -248 -116c-120 0 -232 64 -232 226v431c0 49 -5 61 -53 60v7h191v-7c-28 0 -55 0 -55 -55v-395c0 -32 2 -77 17 -114c37 -91 117 -116 173 -116c117 0 183 77 207 105v487c0 66 -5 88 -46 88h-7v7h189v-7c-30 -1 -53 -1 -53 -49
v-586c0 -45 0 -71 53 -70v-7z" />
    <glyph glyph-name="V" unicode="V" horiz-adv-x="688" 
d="M351 -11h-9l-256 633c-32 80 -52 90 -81 90v7h166v-7c-14 1 -22 -3 -22 -17c0 -9 5 -23 10 -33l216 -537l215 536c0 1 1 3 2 5c2 6 9 23 9 31c0 4 -2 17 -26 15v7h108v-7c-37 0 -47 -21 -59 -45l-4 -7z" />
    <glyph glyph-name="W" unicode="W" horiz-adv-x="1031" 
d="M729 -11h-11l-199 548h-2l-193 -548h-11l-234 642c-17 46 -33 82 -77 81v7h170v-7c-9 0 -25 -2 -25 -18c0 -11 6 -28 8 -33l190 -523h2l155 442l-15 42c-24 66 -46 91 -80 90v7h168v-7c-11 0 -24 -3 -24 -21c0 -8 2 -13 7 -27c1 -2 3 -6 3 -7l190 -521h2l185 523
c0 1 1 3 2 5c1 4 2 5 3 10c5 15 6 16 6 20c0 19 -19 18 -25 18v7h105v-7c-38 -3 -52 -34 -53 -36c-12 -25 -13 -28 -15 -34z" />
    <glyph glyph-name="X" unicode="X" horiz-adv-x="677" 
d="M612 719v-7c-13 1 -29 2 -54 -30c-1 -2 -8 -11 -9 -13c-1 0 -1 -1 -2 -2l-3 -3l-183 -258l219 -316c0 -1 3 -5 5 -8c48 -73 68 -76 87 -75v-7h-179v7c11 -1 23 3 23 16c0 9 -4 20 -8 25l-7 11c-1 0 -2 2 -3 4l-188 271l-193 -269c0 -1 -1 -3 -3 -5l-8 -12
c-4 -5 -13 -19 -13 -28c0 -3 3 -14 24 -13v-7h-107v7c21 -1 40 17 41 18c2 2 10 11 11 13l230 322l-215 310c0 1 -2 5 -3 6c-11 19 -33 38 -57 36v7h181v-7c-6 0 -29 2 -29 -16c0 -15 17 -37 18 -38l157 -226l169 237c1 1 3 5 4 7c10 14 11 17 11 23c0 14 -14 13 -25 13v7
h109z" />
    <glyph glyph-name="Y" unicode="Y" horiz-adv-x="573" 
d="M459 719h108v-7c-26 -1 -42 -10 -64 -44l-176 -266v-330c0 -55 9 -64 55 -65v-7h-192v7c19 -1 55 -2 55 48l-1 16v304l-176 292c-7 12 -27 46 -62 45v7h170v-7c-8 0 -24 -1 -24 -18c0 -8 11 -26 12 -29l145 -239l159 241l2 2c3 5 13 18 13 27c0 16 -16 16 -21 16h-3v7z
" />
    <glyph glyph-name="Z" unicode="Z" horiz-adv-x="708" 
d="M689 113v-113h-682l558 692h-374c-66 0 -79 -12 -88 -71h-7l4 98h592l-560 -692h477c47 0 68 7 73 86h7z" />
    <glyph glyph-name="bracketleft" unicode="[" horiz-adv-x="313" 
d="M281 -228h-205v947h205v-33h-172v-882h172v-32z" />
    <glyph glyph-name="backslash" unicode="\" 
d="M12 0v665h475v-665h-475zM88 618l162 -243l161 243h-323zM60 575v-484c0 -1 161 242 161 242zM440 575l-162 -242l162 -243v485zM411 48l-161 242l-162 -242h323z" />
    <glyph glyph-name="bracketright" unicode="]" horiz-adv-x="313" 
d="M32 719h205v-947h-205v33h172v882h-172v32z" />
    <glyph glyph-name="asciicircum" unicode="^" 
d="M12 0v665h475v-665h-475zM88 618l162 -243l161 243h-323zM60 575v-484c0 -1 161 242 161 242zM440 575l-162 -242l162 -243v485zM411 48l-161 242l-162 -242h323z" />
    <glyph glyph-name="underscore" unicode="_" 
d="M506 -125h-512v50h512v-50z" />
    <glyph glyph-name="quoteleft" unicode="&#x2018;" horiz-adv-x="167" 
d="M147 730l3 -4c-79 -57 -86 -125 -86 -147c0 -6 3 -19 11 -19c1 0 6 1 10 2c5 1 9 2 11 2c26 0 53 -20 53 -50c0 -27 -21 -53 -55 -53c-39 0 -75 35 -75 98c0 104 90 151 128 171z" />
    <glyph glyph-name="a" unicode="a" horiz-adv-x="688" 
d="M418 331h-210l-109 -272c-2 -5 -5 -12 -5 -13c-5 -11 -6 -16 -6 -23c0 -17 16 -16 24 -16v-7h-107v7c43 1 54 30 68 65l261 658h12l257 -636c0 -1 1 -5 3 -8l4 -11c10 -27 28 -68 73 -68v-7h-168v7c22 0 23 16 23 18c0 10 -6 27 -11 39c-2 4 -4 10 -5 11zM215 351h194
l-97 245z" />
    <glyph glyph-name="b" unicode="b" horiz-adv-x="583" 
d="M41 712v7h187c75 0 119 -2 158 -20c59 -27 99 -83 99 -151c0 -93 -69 -132 -90 -144c27 -5 65 -12 100 -46c20 -19 57 -63 57 -142c0 -97 -53 -161 -95 -188c-43 -28 -95 -28 -139 -28h-278v7c52 0 52 20 52 82v542c0 64 0 79 -51 81zM175 704v-316h87
c139 0 147 120 147 152c0 82 -39 123 -85 144s-100 20 -130 20h-19zM231 373h-56v-228c0 -71 0 -126 145 -126c25 0 63 1 95 20s58 58 58 134c0 97 -42 178 -115 193c-25 5 -58 7 -127 7z" />
    <glyph glyph-name="c" unicode="c" horiz-adv-x="771" 
d="M658 683l27 -76h-7c-31 31 -116 104 -246 104c-220 0 -328 -157 -328 -299c0 -130 90 -404 378 -404c108 0 225 38 275 96l6 -2l-50 -77c-125 -28 -160 -36 -256 -36c-152 0 -234 34 -290 75c-78 57 -131 162 -131 280c0 185 138 386 410 386c90 0 150 -22 204 -44
c1 0 7 -2 8 -3z" />
    <glyph glyph-name="d" unicode="d" horiz-adv-x="844" 
d="M38 712v7h330c189 0 258 -35 305 -66c79 -52 139 -146 139 -272c0 -155 -95 -283 -193 -339c-57 -33 -128 -42 -243 -42h-338v7h9c32 0 43 19 43 98v524c0 66 -2 82 -52 83zM283 704h-110v-558c0 -82 24 -127 194 -127c126 0 205 26 265 83c61 58 101 159 101 247
c0 108 -58 261 -243 325c-86 30 -169 30 -207 30z" />
    <glyph glyph-name="e" unicode="e" horiz-adv-x="542" 
d="M39 711v8h452v-99h-7c-21 75 -21 75 -74 75h-237v-323h220c28 0 48 0 51 24h7v-68h-7c-5 24 -22 24 -45 24h-226v-222c0 -102 26 -106 100 -106h127c87 0 114 0 124 75h7v-99h-492v7c28 2 51 3 51 51v581c0 53 -2 72 -51 72z" />
    <glyph glyph-name="f" unicode="f" 
d="M36 712v7h455v-84h-7c0 1 -1 4 -1 6c-12 48 -33 54 -81 54h-232v-317h216c27 0 47 0 50 24h7v-69h-7c-2 10 -5 25 -32 25h-234v-287c0 -51 9 -63 55 -64v-7h-189v7c39 0 51 11 51 48v592c0 57 -18 65 -51 65z" />
    <glyph glyph-name="g" unicode="g" horiz-adv-x="760" 
d="M743 7v-7h-290c-53 0 -141 0 -234 58c-112 70 -186 186 -186 308c0 161 145 364 406 364c78 0 150 -17 224 -47l30 -83h-7c-50 63 -142 111 -248 111c-204 0 -317 -178 -317 -365c0 -173 96 -253 146 -281c78 -44 188 -46 204 -46l39 1c81 2 98 5 98 62v109
c0 46 -22 53 -51 52v7h186v-7c-49 -1 -52 -23 -52 -59v-113c0 -44 9 -64 42 -64h10z" />
    <glyph glyph-name="h" unicode="h" horiz-adv-x="740" 
d="M567 359h-395v-277c0 -48 0 -76 52 -75v-7h-186v7c19 -1 51 0 51 49v579c0 64 -2 74 -51 77v7h186v-7c-23 -1 -52 -1 -52 -52v-281h395v257c0 53 0 76 -50 76v7h184v-7c-51 -1 -51 -18 -51 -76v-552c0 -52 0 -77 51 -77v-7h-184v7c41 2 50 7 50 78v274z" />
    <glyph glyph-name="i" unicode="i" horiz-adv-x="260" 
d="M226 719v-7c-10 1 -54 2 -54 -38c-1 -6 -1 -32 -1 -37v-552c0 -57 0 -79 55 -78v-7h-192v7c52 2 54 15 54 77v547c0 53 0 84 -54 81v7h192z" />
    <glyph glyph-name="j" unicode="j" horiz-adv-x="260" 
d="M34 719h193v-7c-54 -1 -55 -24 -55 -64v-612c0 -61 -4 -138 -12 -161c-6 -18 -17 -47 -41 -71s-58 -45 -112 -45c-44 0 -75 11 -88 15l1 8c8 -2 21 -4 39 -4c65 0 99 38 115 84c18 51 15 104 15 121v662c0 43 -1 68 -55 67v7z" />
    <glyph glyph-name="k" unicode="k" horiz-adv-x="823" 
d="M29 719h206v-7c-56 2 -61 -18 -61 -70v-276l427 321c4 3 13 9 13 16c0 11 -23 9 -29 9v7h155v-7c-38 -1 -74 -13 -114 -43l-372 -278l371 -282c2 -1 4 -3 5 -3c18 -13 39 -28 48 -34c62 -41 92 -65 141 -65v-7h-245v7c14 0 33 -1 33 7c0 6 -13 17 -27 27l-406 309v-267
c0 -52 0 -80 60 -76v-7h-205v7c60 -3 62 20 62 73v558c0 62 -6 76 -62 74v7z" />
    <glyph glyph-name="l" unicode="l" horiz-adv-x="542" 
d="M12 0v7c49 0 54 20 54 56v589c0 54 -15 59 -55 60v7h193v-7c-55 1 -55 -25 -55 -65v-505c0 -89 40 -118 138 -118h88c99 0 121 52 126 149h7v-173h-496z" />
    <glyph glyph-name="m" unicode="m" horiz-adv-x="885" 
d="M697 719h113v-7c-48 -2 -57 -31 -57 -60c0 -9 2 -25 3 -34l75 -545c8 -56 19 -63 51 -66v-7h-162v7c28 -1 32 17 32 31c0 5 0 8 -3 29l-73 528h-2l-256 -595h-5l-257 594h-2l-73 -531c-2 -9 -2 -19 -2 -28c0 -10 0 -28 33 -28v-7h-110v7c32 1 41 2 49 56l82 581l-11 24
c-21 46 -57 44 -68 44v7h136l253 -588z" />
    <glyph glyph-name="n" unicode="n" horiz-adv-x="802" 
d="M629 719h139v-7c-40 -1 -56 -11 -56 -66v-655l-574 611v-532c0 -57 13 -59 52 -63v-7h-138v7c55 2 55 18 55 76v487c0 49 0 146 -100 142v7h135l539 -574v508c0 53 -21 59 -52 59v7z" />
    <glyph glyph-name="o" unicode="o" horiz-adv-x="813" 
d="M780 408c0 -221 -146 -419 -407 -419c-208 0 -340 155 -340 332c0 180 130 409 403 409c209 0 344 -145 344 -322zM735 320c0 233 -224 372 -366 372c-132 0 -281 -110 -281 -281c0 -201 165 -384 345 -384c154 0 302 129 302 293z" />
    <glyph glyph-name="p" unicode="p" horiz-adv-x="531" 
d="M40 712v7h205c71 0 254 0 254 -181c0 -134 -105 -183 -234 -181v7c84 0 154 53 154 152c0 62 -24 123 -75 155c-22 14 -51 24 -119 24h-51v-616c0 -61 5 -71 56 -72v-7h-190v7c23 1 51 4 51 46v596c0 38 0 63 -51 63z" />
    <glyph glyph-name="q" unicode="q" horiz-adv-x="813" 
d="M492 -5l2 -2c130 -95 254 -185 404 -185c28 0 43 3 56 5l1 -6c-56 -26 -118 -34 -137 -34c-101 0 -296 80 -443 216c-47 0 -148 2 -241 91c-65 63 -101 150 -101 240c0 180 130 410 403 410c209 0 344 -145 344 -323c0 -145 -74 -351 -298 -405c5 -4 6 -5 10 -7zM735 319
c0 233 -224 373 -366 373c-132 0 -281 -110 -281 -281c0 -201 165 -385 345 -385c154 0 302 129 302 293z" />
    <glyph glyph-name="r" unicode="r" horiz-adv-x="792" 
d="M39 712v7h204c78 0 112 0 153 -13c61 -19 104 -67 104 -146c0 -84 -61 -153 -126 -188l51 -78l4 -7c10 -18 95 -142 151 -206c15 -18 61 -58 119 -58c26 0 38 5 49 10c16 7 28 15 34 18l3 -10c-21 -16 -35 -24 -55 -32c-18 -7 -55 -16 -97 -16c-38 0 -91 9 -141 70
c-54 66 -120 164 -122 167c0 2 -2 4 -2 5l-72 111l-27 -1c-6 -1 -32 -1 -37 -1h-58v-275c0 -57 17 -61 51 -62v-7h-186v7c46 2 52 13 52 68v572c0 60 -18 64 -52 65zM174 700v-337h75c26 0 78 7 102 20c35 19 73 62 73 132c0 45 -16 100 -55 140c-29 29 -67 45 -136 45h-59z
" />
    <glyph glyph-name="s" unicode="s" horiz-adv-x="479" 
d="M384 710l34 -90l-6 -1c-1 2 -6 7 -7 8c-27 31 -73 80 -161 80c-108 0 -160 -74 -160 -144c0 -96 84 -119 160 -143c68 -21 213 -64 213 -216c0 -90 -53 -155 -111 -184c-27 -13 -109 -20 -129 -20h-192v209h7c1 -110 34 -186 198 -186c163 0 187 107 187 148
c0 96 -91 129 -179 159c-83 28 -107 41 -132 65c-35 34 -59 82 -59 138c0 104 75 197 208 197c52 0 89 -10 121 -18c2 0 7 -2 8 -2z" />
    <glyph glyph-name="t" unicode="t" horiz-adv-x="604" 
d="M605 744l-34 -87h-7c3 10 2 15 2 21c0 19 -20 18 -34 18h-188v-616c0 -57 5 -74 57 -73v-7h-195v7c45 4 55 9 55 63v626h-180c-32 0 -44 0 -44 -19c0 -5 1 -9 4 -20h-7l-34 87h7c6 -12 12 -19 19 -22c8 -3 19 -3 35 -3h478c29 0 49 -2 59 25h7z" />
    <glyph glyph-name="u" unicode="u" horiz-adv-x="750" 
d="M709 0h-136v111c-100 -112 -204 -116 -248 -116c-120 0 -232 64 -232 226v431c0 49 -5 61 -53 60v7h191v-7c-28 0 -55 0 -55 -55v-395c0 -32 2 -77 17 -114c37 -91 117 -116 173 -116c117 0 183 77 207 105v487c0 66 -5 88 -46 88h-7v7h189v-7c-30 -1 -53 -1 -53 -49
v-586c0 -45 0 -71 53 -70v-7z" />
    <glyph glyph-name="v" unicode="v" horiz-adv-x="688" 
d="M351 -11h-9l-256 633c-32 80 -52 90 -81 90v7h166v-7c-14 1 -22 -3 -22 -17c0 -9 5 -23 10 -33l216 -537l215 536c0 1 1 3 2 5c2 6 9 23 9 31c0 4 -2 17 -26 15v7h108v-7c-37 0 -47 -21 -59 -45l-4 -7z" />
    <glyph glyph-name="w" unicode="w" horiz-adv-x="1031" 
d="M729 -11h-11l-199 548h-2l-193 -548h-11l-234 642c-17 46 -33 82 -77 81v7h170v-7c-9 0 -25 -2 -25 -18c0 -11 6 -28 8 -33l190 -523h2l155 442l-15 42c-24 66 -46 91 -80 90v7h168v-7c-11 0 -24 -3 -24 -21c0 -8 2 -13 7 -27c1 -2 3 -6 3 -7l190 -521h2l185 523
c0 1 1 3 2 5c1 4 2 5 3 10c5 15 6 16 6 20c0 19 -19 18 -25 18v7h105v-7c-38 -3 -52 -34 -53 -36c-12 -25 -13 -28 -15 -34z" />
    <glyph glyph-name="x" unicode="x" horiz-adv-x="677" 
d="M612 719v-7c-13 1 -29 2 -54 -30c-1 -2 -8 -11 -9 -13c-1 0 -1 -1 -2 -2l-3 -3l-183 -258l219 -316c0 -1 3 -5 5 -8c48 -73 68 -76 87 -75v-7h-179v7c11 -1 23 3 23 16c0 9 -4 20 -8 25l-7 11c-1 0 -2 2 -3 4l-188 271l-193 -269c0 -1 -1 -3 -3 -5l-8 -12
c-4 -5 -13 -19 -13 -28c0 -3 3 -14 24 -13v-7h-107v7c21 -1 40 17 41 18c2 2 10 11 11 13l230 322l-215 310c0 1 -2 5 -3 6c-11 19 -33 38 -57 36v7h181v-7c-6 0 -29 2 -29 -16c0 -15 17 -37 18 -38l157 -226l169 237c1 1 3 5 4 7c10 14 11 17 11 23c0 14 -14 13 -25 13v7
h109z" />
    <glyph glyph-name="y" unicode="y" horiz-adv-x="573" 
d="M459 719h108v-7c-26 -1 -42 -10 -64 -44l-176 -266v-330c0 -55 9 -64 55 -65v-7h-192v7c19 -1 55 -2 55 48l-1 16v304l-176 292c-7 12 -27 46 -62 45v7h170v-7c-8 0 -24 -1 -24 -18c0 -8 11 -26 12 -29l145 -239l159 241l2 2c3 5 13 18 13 27c0 16 -16 16 -21 16h-3v7z
" />
    <glyph glyph-name="z" unicode="z" horiz-adv-x="708" 
d="M689 113v-113h-682l558 692h-374c-66 0 -79 -12 -88 -71h-7l4 98h592l-560 -692h477c47 0 68 7 73 86h7z" />
    <glyph glyph-name="braceleft" unicode="{" horiz-adv-x="480" 
d="M411 -199v-17c-119 16 -184 107 -184 190c0 10 1 37 11 76c1 7 12 51 12 75c0 34 -26 93 -112 105v19c86 12 112 71 112 105c0 24 -11 69 -12 75c-9 38 -11 66 -11 76c0 80 63 173 184 190v-18c-63 -15 -111 -50 -111 -115c0 -16 5 -46 12 -77c4 -14 11 -47 11 -76
c0 -31 -15 -122 -145 -167v-2c102 -37 145 -111 145 -170c0 -29 -7 -62 -11 -76c-8 -30 -12 -61 -12 -77c0 -65 48 -100 111 -116z" />
    <glyph glyph-name="bar" unicode="|" 
d="M12 0v665h475v-665h-475zM88 618l162 -243l161 243h-323zM60 575v-484c0 -1 161 242 161 242zM440 575l-162 -242l162 -243v485zM411 48l-161 242l-162 -242h323z" />
    <glyph glyph-name="braceright" unicode="}" horiz-adv-x="480" 
d="M69 678v17c119 -16 184 -107 184 -190c0 -10 -1 -37 -11 -76c-1 -7 -12 -51 -12 -75c0 -34 26 -93 112 -105v-19c-86 -12 -112 -71 -112 -105c0 -24 11 -69 12 -75c9 -38 11 -66 11 -76c0 -80 -63 -173 -184 -190v18c63 15 111 50 111 115c0 16 -5 46 -12 77
c-4 14 -11 47 -11 76c0 31 15 122 145 167v2c-102 37 -145 111 -145 170c0 29 7 62 11 76c8 30 12 61 12 77c0 65 -48 100 -111 116z" />
    <glyph glyph-name="asciitilde" unicode="~" 
d="M12 0v665h475v-665h-475zM88 618l162 -243l161 243h-323zM60 575v-484c0 -1 161 242 161 242zM440 575l-162 -242l162 -243v485zM411 48l-161 242l-162 -242h323z" />
    <glyph glyph-name="exclamdown" unicode="&#xa1;" horiz-adv-x="167" 
d="M28 0l25 270c2 18 5 38 9 62c7 41 7 49 15 125c3 28 3 32 3 53v19h9c1 -12 1 -16 2 -49c2 -24 5 -70 7 -105c1 -16 8 -142 9 -170c1 -5 2 -22 2 -38l2 -29c9 -124 7 -129 51 -129v-9h-134zM84 730c30 0 53 -24 53 -53s-23 -53 -53 -53c-29 0 -53 23 -53 53
c0 29 24 53 53 53z" />
    <glyph glyph-name="cent" unicode="&#xa2;" horiz-adv-x="542" 
d="M161 -126l-19 7l54 124c-35 11 -154 52 -154 212c0 137 100 250 262 250c43 0 65 -7 85 -13l41 94l17 -8l-39 -91c23 -9 29 -12 40 -18c12 -36 14 -45 20 -67l-7 -1c-23 31 -38 44 -64 59l-167 -386c33 -17 69 -24 106 -24c65 0 125 19 163 73l7 -3
c-14 -30 -18 -39 -33 -68c-55 -17 -112 -23 -170 -23c-48 0 -67 4 -88 9zM214 47l165 384c-15 7 -38 17 -85 17c-131 0 -194 -92 -194 -176c0 -94 58 -189 114 -225z" />
    <glyph glyph-name="sterling" unicode="&#xa3;" horiz-adv-x="552" 
d="M98 288h-83v21h83v157c0 218 135 265 215 265c42 0 102 -13 166 -53l27 -98l-8 -1c-31 49 -85 132 -182 132c-135 0 -135 -158 -135 -188v-215h200v-20h-200v-155c0 -49 0 -113 140 -113h81c54 0 131 0 133 153h6v-173h-505v6c44 3 62 4 62 59v223z" />
    <glyph glyph-name="fraction" unicode="&#x2044;" 
d="M12 0v665h475v-665h-475zM88 618l162 -243l161 243h-323zM60 575v-484c0 -1 161 242 161 242zM440 575l-162 -242l162 -243v485zM411 48l-161 242l-162 -242h323z" />
    <glyph glyph-name="yen" unicode="&#xa5;" horiz-adv-x="573" 
d="M231 397l-163 270c-7 12 -27 46 -62 45v7h170v-7c-8 0 -24 -1 -24 -18c0 -8 11 -26 12 -29l145 -239l159 241l2 2c3 5 13 18 13 27c0 16 -16 16 -21 16h-3v7h108v-7c-26 -1 -42 -10 -64 -44l-176 -266v-5h207v-21h-207v-147h207v-21h-207v-136c0 -55 9 -64 55 -65v-7
h-192v7c19 -1 54 -2 54 48v16v137h-206v21h206v147h-206v21h193z" />
    <glyph glyph-name="florin" unicode="&#x192;" horiz-adv-x="542" 
d="M442 435v-21h-124l-34 -391c-7 -81 -22 -249 -177 -249c-50 0 -84 12 -102 19l1 130h6c10 -86 48 -129 91 -129c78 0 94 100 101 181l37 439h-83v21h85l7 76c6 75 18 221 165 221c47 0 79 -16 105 -28l12 -98h-8c-10 30 -38 105 -105 105c-77 0 -85 -89 -91 -168l-9 -108
h123z" />
    <glyph glyph-name="section" unicode="&#xa7;" 
d="M12 0v665h475v-665h-475zM88 618l162 -243l161 243h-323zM60 575v-484c0 -1 161 242 161 242zM440 575l-162 -242l162 -243v485zM411 48l-161 242l-162 -242h323z" />
    <glyph glyph-name="currency" unicode="&#xa4;" 
d="M12 0v665h475v-665h-475zM88 618l162 -243l161 243h-323zM60 575v-484c0 -1 161 242 161 242zM440 575l-162 -242l162 -243v485zM411 48l-161 242l-162 -242h323z" />
    <glyph glyph-name="quotesingle" unicode="'" 
d="M12 0v665h475v-665h-475zM88 618l162 -243l161 243h-323zM60 575v-484c0 -1 161 242 161 242zM440 575l-162 -242l162 -243v485zM411 48l-161 242l-162 -242h323z" />
    <glyph glyph-name="quotedblleft" unicode="&#x201c;" horiz-adv-x="333" 
d="M313 730l3 -4c-79 -57 -86 -125 -86 -147c0 -6 3 -19 11 -19c1 0 6 1 10 2c5 1 9 2 11 2c26 0 53 -20 53 -50c0 -27 -21 -53 -55 -53c-39 0 -75 35 -75 98c0 104 90 151 128 171zM146 730l4 -4c-80 -57 -86 -125 -86 -147c0 -6 2 -19 10 -19c1 0 6 1 10 2c5 1 9 2 11 2
c26 0 53 -20 53 -50c0 -27 -21 -53 -55 -53c-38 0 -75 35 -75 98c0 104 90 151 128 171z" />
    <glyph glyph-name="guillemotleft" unicode="&#xab;" horiz-adv-x="438" 
d="M214 545l-96 -186l97 -184h-16l-172 185l170 185h17zM412 545l-96 -186l97 -184h-16l-172 185l170 185h17z" />
    <glyph glyph-name="guilsinglleft" unicode="&#x2039;" horiz-adv-x="240" 
d="M214 545l-96 -186l97 -184h-16l-172 185l170 185h17z" />
    <glyph glyph-name="guilsinglright" unicode="&#x203a;" horiz-adv-x="240" 
d="M26 175l96 186l-97 184h16l172 -185l-170 -185h-17z" />
    <glyph glyph-name="endash" unicode="&#x2013;" 
d="M-6 380h512v-40h-512v40z" />
    <glyph glyph-name="dagger" unicode="&#x2020;" 
d="M12 0v665h475v-665h-475zM88 618l162 -243l161 243h-323zM60 575v-484c0 -1 161 242 161 242zM440 575l-162 -242l162 -243v485zM411 48l-161 242l-162 -242h323z" />
    <glyph glyph-name="daggerdbl" unicode="&#x2021;" 
d="M12 0v665h475v-665h-475zM88 618l162 -243l161 243h-323zM60 575v-484c0 -1 161 242 161 242zM440 575l-162 -242l162 -243v485zM411 48l-161 242l-162 -242h323z" />
    <glyph glyph-name="periodcentered" unicode="&#xb7;" horiz-adv-x="167" 
d="M83 414c30 0 53 -23 53 -53c0 -29 -23 -53 -53 -53c-29 0 -53 24 -53 53c0 30 24 53 53 53z" />
    <glyph glyph-name="paragraph" unicode="&#xb6;" 
d="M12 0v665h475v-665h-475zM88 618l162 -243l161 243h-323zM60 575v-484c0 -1 161 242 161 242zM440 575l-162 -242l162 -243v485zM411 48l-161 242l-162 -242h323z" />
    <glyph glyph-name="bullet" unicode="&#x2022;" horiz-adv-x="350" 
d="M298 331c0 -68 -55 -123 -123 -123c-67 0 -122 55 -122 123c0 67 55 122 122 122c68 0 123 -55 123 -122z" />
    <glyph glyph-name="quotesinglbase" unicode="&#x201a;" horiz-adv-x="167" 
d="M21 -177l-4 4c80 57 86 125 86 147c0 6 -2 19 -10 19c-2 0 -7 -1 -11 -2c-5 -1 -9 -2 -11 -2c-25 0 -53 20 -53 50c0 27 21 53 55 53c39 0 75 -35 75 -98c0 -104 -89 -151 -127 -171z" />
    <glyph glyph-name="quotedblbase" unicode="&#x201e;" horiz-adv-x="333" 
d="M20 -177l-3 4c79 57 86 125 86 147c0 6 -3 19 -11 19c-1 0 -6 -1 -10 -2c-5 -1 -9 -2 -11 -2c-26 0 -53 20 -53 50c0 27 21 53 55 53c39 0 75 -35 75 -98c0 -104 -90 -151 -128 -171zM187 -177l-4 4c80 57 86 125 86 147c0 6 -2 19 -10 19c-1 0 -6 -1 -10 -2
c-5 -1 -9 -2 -11 -2c-26 0 -53 20 -53 50c0 27 21 53 55 53c38 0 75 -35 75 -98c0 -104 -90 -151 -128 -171z" />
    <glyph glyph-name="quotedblright" unicode="&#x201d;" horiz-adv-x="333" 
d="M20 461l-3 4c79 57 86 125 86 147c0 6 -3 19 -11 19c-1 0 -6 -1 -10 -2c-5 -1 -9 -2 -11 -2c-26 0 -53 20 -53 50c0 27 21 53 55 53c39 0 75 -35 75 -98c0 -104 -90 -151 -128 -171zM187 461l-4 4c80 57 86 125 86 147c0 6 -2 19 -10 19c-1 0 -6 -1 -10 -2
c-5 -1 -9 -2 -11 -2c-26 0 -53 20 -53 50c0 27 21 53 55 53c38 0 75 -35 75 -98c0 -104 -90 -151 -128 -171z" />
    <glyph glyph-name="guillemotright" unicode="&#xbb;" horiz-adv-x="438" 
d="M224 175l96 186l-97 184h16l172 -185l-170 -185h-17zM26 175l96 186l-97 184h16l172 -185l-170 -185h-17z" />
    <glyph glyph-name="ellipsis" unicode="&#x2026;" horiz-adv-x="1000" 
d="M833 96c29 0 53 -24 53 -53s-24 -53 -53 -53s-53 23 -53 53c0 29 24 53 53 53zM500 96c29 0 53 -24 53 -53s-24 -53 -53 -53s-53 23 -53 53c0 29 24 53 53 53zM167 96c29 0 53 -24 53 -53s-24 -53 -53 -53s-53 23 -53 53c0 29 24 53 53 53z" />
    <glyph glyph-name="perthousand" unicode="&#x2030;" 
d="M12 0v665h475v-665h-475zM88 618l162 -243l161 243h-323zM60 575v-484c0 -1 161 242 161 242zM440 575l-162 -242l162 -243v485zM411 48l-161 242l-162 -242h323z" />
    <glyph glyph-name="questiondown" unicode="&#xbf;" horiz-adv-x="354" 
d="M221 531l10 -252c-95 -16 -157 -64 -157 -144c0 -60 44 -127 124 -127c55 0 110 30 136 92h8l-23 -85c-58 -24 -94 -26 -120 -26c-132 0 -191 85 -191 175c0 123 101 161 132 173c58 22 58 26 61 63l10 131h10zM215 624c-30 0 -53 24 -53 53s23 53 53 53
c29 0 53 -23 53 -53c0 -29 -24 -53 -53 -53z" />
    <glyph glyph-name="grave" unicode="`" horiz-adv-x="333" 
d="M73 920h88l83 -151h-23z" />
    <glyph glyph-name="acute" unicode="&#xb4;" horiz-adv-x="333" 
d="M172 920h88l-148 -151h-23z" />
    <glyph glyph-name="circumflex" unicode="&#x2c6;" horiz-adv-x="333" 
d="M193 920l129 -151h-22l-133 94l-133 -94h-23l129 151h53z" />
    <glyph glyph-name="tilde" unicode="&#x2dc;" horiz-adv-x="333" 
d="M20 770h-21c-2 73 58 104 102 104c28 0 52 -12 88 -30c30 -15 45 -23 67 -23c45 0 55 40 58 53h20c2 -61 -50 -104 -107 -104c-32 0 -52 10 -81 25c-47 24 -56 28 -74 28c-20 0 -50 -11 -52 -53z" />
    <glyph glyph-name="macron" unicode="&#xaf;" horiz-adv-x="333" 
d="M376 868v-36h-400v36h400z" />
    <glyph glyph-name="breve" unicode="&#x2d8;" horiz-adv-x="333" 
d="M292 911h21c-4 -72 -57 -141 -146 -141c-87 0 -142 66 -146 141h21c11 -48 54 -83 125 -83c72 0 114 37 125 83z" />
    <glyph glyph-name="dotaccent" unicode="&#x2d9;" horiz-adv-x="333" 
d="M122 815c0 26 20 46 45 46c26 0 45 -21 45 -46c0 -24 -19 -45 -45 -45c-25 0 -45 20 -45 45z" />
    <glyph glyph-name="dieresis" unicode="&#xa8;" horiz-adv-x="333" 
d="M216 815c0 26 20 46 45 46s45 -21 45 -46c0 -24 -20 -45 -45 -45s-45 20 -45 45zM27 815c0 26 20 46 45 46c26 0 45 -21 45 -46c0 -24 -19 -45 -45 -45c-25 0 -45 20 -45 45z" />
    <glyph glyph-name="ring" unicode="&#x2da;" horiz-adv-x="333" 
d="M87 849c0 45 37 79 79 79c45 0 80 -36 80 -79s-34 -80 -80 -80c-43 0 -79 35 -79 80zM109 849c0 -31 26 -57 57 -57c34 0 58 28 58 57s-24 57 -58 57c-31 0 -57 -26 -57 -57z" />
    <glyph glyph-name="cedilla" unicode="&#xb8;" horiz-adv-x="333" 
d="M209 10l-26 -47c40 -13 71 -36 71 -77c0 -61 -69 -107 -175 -102v20c120 3 124 52 124 64c0 38 -38 50 -77 52c8 12 21 30 28 41c10 16 24 38 29 49h26z" />
    <glyph glyph-name="hungarumlaut" unicode="&#x2dd;" horiz-adv-x="333" 
d="M116 920h88l-148 -151h-23zM254 920h88l-148 -151h-23z" />
    <glyph glyph-name="ogonek" unicode="&#x2db;" horiz-adv-x="333" 
d="M156 6h25c-32 -33 -52 -61 -52 -104c0 -67 44 -93 76 -93c13 0 29 5 37 8l8 -16c-28 -14 -45 -20 -71 -20c-75 0 -98 58 -98 96c0 50 34 90 75 129z" />
    <glyph glyph-name="caron" unicode="&#x2c7;" horiz-adv-x="333" 
d="M140 769l-129 151h22l133 -94l133 94h23l-129 -151h-53z" />
    <glyph glyph-name="emdash" unicode="&#x2014;" horiz-adv-x="1000" 
d="M-6 380h1012v-40h-1012v40z" />
    <glyph glyph-name="AE" unicode="&#xc6;" horiz-adv-x="865" 
d="M417 354h-164l-157 -303s-3 -4 -3 -5c-5 -10 -7 -14 -7 -21c0 -14 11 -18 24 -17v-8h-106v8c15 1 35 4 53 34c1 3 8 14 9 16c1 1 3 4 3 4l342 657h404v-100h-7c-17 75 -27 76 -73 76h-235v-321h214c39 0 50 0 55 24h7v-69h-7c-5 24 -21 23 -42 24l-26 1h-201v-188
c0 -114 11 -142 85 -142h157c59 0 97 0 107 73h7v-97h-490v7c50 -2 49 28 50 68l1 55v224zM264 374h153v294h-2z" />
    <glyph glyph-name="ordfeminine" unicode="&#xaa;" horiz-adv-x="302" 
d="M253 664v-187c0 -12 6 -15 10 -15c3 0 11 4 18 10c1 1 5 5 9 5c2 0 5 -1 5 -6c0 -28 -32 -55 -58 -55c-23 0 -37 17 -37 42v14c-25 -25 -59 -55 -108 -55c-42 0 -70 23 -70 58c0 58 59 77 133 101c24 8 28 10 45 16v52c0 31 -19 54 -48 54c-50 0 -83 -37 -100 -56l-17 14
c23 31 61 81 128 81c59 0 90 -36 90 -73zM200 495v79l-26 -10c-81 -32 -94 -52 -94 -74c0 -23 21 -35 40 -35c35 0 65 26 80 40z" />
    <glyph glyph-name="Lslash" unicode="&#x141;" horiz-adv-x="542" 
d="M12 0v6c49 0 53 21 53 57v205l-62 -56v26l62 56v358c0 54 -14 59 -54 60v7h193v-7c-56 1 -56 -25 -56 -65v-278l174 155v-26l-174 -155v-201c0 -89 41 -118 139 -118h88c99 0 120 52 126 149h7v-173h-496z" />
    <glyph glyph-name="Oslash" unicode="&#xd8;" horiz-adv-x="813" 
d="M659 660l63 71l14 -12l-63 -71c21 -19 107 -95 107 -241c0 -205 -134 -419 -407 -419c-69 0 -144 15 -216 72c0 0 -2 1 -2 2l-65 -74l-15 12l65 74c-70 62 -107 152 -107 246c0 182 131 411 403 411c81 0 158 -21 223 -71zM197 138l405 457c-1 1 -2 2 -3 2
c-38 32 -126 95 -229 95c-129 0 -282 -105 -282 -283c0 -116 56 -213 109 -271zM616 583l-405 -458c86 -87 175 -100 223 -100c141 0 301 115 301 301c0 74 -27 172 -119 257z" />
    <glyph glyph-name="OE" unicode="&#x152;" horiz-adv-x="990" 
d="M901 396v-68h-6c-4 24 -22 24 -48 24h-223v-211c0 -96 0 -117 109 -117h152c42 0 80 2 89 75h6v-99h-549c-69 0 -155 6 -223 44c-113 63 -172 179 -172 301c0 193 142 301 205 334c59 31 127 40 195 40h506v-99h-7c-14 75 -26 75 -76 75h-235v-323h232c15 0 34 0 39 24h6
zM541 128v480c0 85 -10 92 -73 92c-21 0 -99 1 -170 -28c-111 -45 -176 -156 -176 -296c0 -218 146 -357 330 -357h18c69 0 71 51 71 109z" />
    <glyph glyph-name="ordmasculine" unicode="&#xba;" horiz-adv-x="344" 
d="M169 737c98 0 156 -80 156 -163c0 -90 -68 -162 -151 -162c-91 0 -155 80 -155 167c0 99 82 158 150 158zM161 704c-53 0 -89 -42 -89 -101c0 -78 52 -156 115 -156c43 0 85 39 85 103c0 79 -52 154 -111 154z" />
    <glyph glyph-name="ae" unicode="&#xe6;" horiz-adv-x="865" 
d="M417 354h-164l-157 -303s-3 -4 -3 -5c-5 -10 -7 -14 -7 -21c0 -14 11 -18 24 -17v-8h-106v8c15 1 35 4 53 34c1 3 8 14 9 16c1 1 3 4 3 4l342 657h404v-100h-7c-17 75 -27 76 -73 76h-235v-321h214c39 0 50 0 55 24h7v-69h-7c-5 24 -21 23 -42 24l-26 1h-201v-188
c0 -114 11 -142 85 -142h157c59 0 97 0 107 73h7v-97h-490v7c50 -2 49 28 50 68l1 55v224zM264 374h153v294h-2z" />
    <glyph glyph-name="dotlessi" unicode="&#x131;" horiz-adv-x="260" 
d="M226 719v-7c-10 1 -54 2 -54 -38c-1 -6 -1 -32 -1 -37v-552c0 -57 0 -79 55 -78v-7h-192v7c52 2 54 15 54 77v547c0 53 0 84 -54 81v7h192z" />
    <glyph glyph-name="lslash" unicode="&#x142;" horiz-adv-x="542" 
d="M12 0v6c49 0 53 21 53 57v205l-62 -56v26l62 56v358c0 54 -14 59 -54 60v7h193v-7c-56 1 -56 -25 -56 -65v-278l174 155v-26l-174 -155v-201c0 -89 41 -118 139 -118h88c99 0 120 52 126 149h7v-173h-496z" />
    <glyph glyph-name="oslash" unicode="&#xf8;" horiz-adv-x="813" 
d="M659 660l63 71l14 -12l-63 -71c21 -19 107 -95 107 -241c0 -205 -134 -419 -407 -419c-69 0 -144 15 -216 72c0 0 -2 1 -2 2l-65 -74l-15 12l65 74c-70 62 -107 152 -107 246c0 182 131 411 403 411c81 0 158 -21 223 -71zM197 138l405 457c-1 1 -2 2 -3 2
c-38 32 -126 95 -229 95c-129 0 -282 -105 -282 -283c0 -116 56 -213 109 -271zM616 583l-405 -458c86 -87 175 -100 223 -100c141 0 301 115 301 301c0 74 -27 172 -119 257z" />
    <glyph glyph-name="oe" unicode="&#x153;" horiz-adv-x="990" 
d="M901 396v-68h-6c-4 24 -22 24 -48 24h-223v-211c0 -96 0 -117 109 -117h152c42 0 80 2 89 75h6v-99h-549c-69 0 -155 6 -223 44c-113 63 -172 179 -172 301c0 193 142 301 205 334c59 31 127 40 195 40h506v-99h-7c-14 75 -26 75 -76 75h-235v-323h232c15 0 34 0 39 24h6
zM541 128v480c0 85 -10 92 -73 92c-21 0 -99 1 -170 -28c-111 -45 -176 -156 -176 -296c0 -218 146 -357 330 -357h18c69 0 71 51 71 109z" />
    <glyph glyph-name="germandbls" unicode="&#xdf;" horiz-adv-x="958" 
d="M384 710l34 -90l-6 -1c-1 2 -6 7 -7 8c-27 31 -73 80 -161 80c-108 0 -160 -74 -160 -144c0 -96 84 -119 160 -143c68 -21 213 -64 213 -216c0 -102 -65 -204 -226 -204h-206v209h7c1 -110 34 -186 198 -186c163 0 187 107 187 148c0 80 -63 124 -179 159
c-127 38 -191 102 -191 203c0 91 68 197 208 197c52 0 89 -10 121 -18c2 0 7 -2 8 -2zM863 710l34 -90l-6 -1c-1 2 -6 7 -7 8c-27 31 -73 80 -161 80c-108 0 -160 -74 -160 -144c0 -96 84 -119 160 -143c68 -21 213 -64 213 -216c0 -102 -65 -204 -226 -204h-206v209h7
c1 -110 34 -186 198 -186c163 0 187 107 187 148c0 80 -63 124 -179 159c-127 38 -191 102 -191 203c0 91 68 197 208 197c52 0 89 -10 121 -18c2 0 7 -2 8 -2z" />
    <glyph glyph-name="onesuperior" unicode="&#xb9;" horiz-adv-x="156" 
d="M16 690l81 42h12l-1 -344c0 -20 0 -26 26 -26h11v-10h-131v10c35 0 38 0 38 29v276c0 15 0 21 -8 21c-6 0 -15 -4 -20 -6c-3 -1 -6 -3 -7 -4z" />
    <glyph glyph-name="logicalnot" unicode="&#xac;" 
d="M12 0v665h475v-665h-475zM88 618l162 -243l161 243h-323zM60 575v-484c0 -1 161 242 161 242zM440 575l-162 -242l162 -243v485zM411 48l-161 242l-162 -242h323z" />
    <glyph glyph-name="mu" unicode="&#xb5;" 
d="M12 0v665h475v-665h-475zM88 618l162 -243l161 243h-323zM60 575v-484c0 -1 161 242 161 242zM440 575l-162 -242l162 -243v485zM411 48l-161 242l-162 -242h323z" />
    <glyph glyph-name="trademark" unicode="&#x2122;" horiz-adv-x="980" 
d="M25 744h356l10 -98h-16c-9 64 -55 69 -95 69h-36v-283c0 -53 7 -62 51 -65v-17h-183v17c42 5 49 9 49 64v284h-37c-69 0 -84 -25 -93 -69h-16zM565 744l133 -279l129 279h136v-18c-47 -1 -53 -10 -53 -66v-228c0 -52 3 -62 53 -65v-17h-194v17c51 2 58 13 58 64v240h-2
l-147 -321h-16l-149 317h-2v-235c0 -39 0 -65 46 -65h18v-17h-150v17c49 1 55 12 55 64v228c0 51 0 67 -55 67v18h140z" />
    <glyph glyph-name="Eth" unicode="&#xd0;" horiz-adv-x="844" 
d="M90 353h-64v20h64v256c0 66 0 82 -51 83v7h329c189 0 258 -35 305 -66c79 -52 139 -146 139 -272c0 -155 -95 -283 -193 -339c-57 -33 -128 -42 -243 -42h-338v7c50 4 52 15 52 98v248zM432 353h-259v-207c0 -82 24 -127 194 -127c126 0 206 26 265 83
c61 59 101 159 101 247c0 108 -58 261 -243 325c-86 30 -169 30 -207 30h-110v-331h259v-20z" />
    <glyph glyph-name="onehalf" unicode="&#xbd;" 
d="M12 0v665h475v-665h-475zM88 618l162 -243l161 243h-323zM60 575v-484c0 -1 161 242 161 242zM440 575l-162 -242l162 -243v485zM411 48l-161 242l-162 -242h323z" />
    <glyph glyph-name="plusminus" unicode="&#xb1;" 
d="M12 0v665h475v-665h-475zM88 618l162 -243l161 243h-323zM60 575v-484c0 -1 161 242 161 242zM440 575l-162 -242l162 -243v485zM411 48l-161 242l-162 -242h323z" />
    <glyph glyph-name="Thorn" unicode="&#xde;" horiz-adv-x="531" 
d="M226 719v-7c-33 -1 -52 -4 -52 -61v-104h98c96 0 227 -16 227 -158c0 -90 -64 -151 -112 -182c-43 -28 -82 -35 -155 -35h-58v-103c0 -57 18 -61 52 -62v-7h-186v7c45 2 51 13 51 68v572c0 60 -17 64 -51 65v7h186zM174 528v-337h75c25 0 78 7 102 20c34 19 73 62 73 133
c0 45 -16 99 -55 139c-29 30 -67 45 -136 45h-59z" />
    <glyph glyph-name="onequarter" unicode="&#xbc;" 
d="M12 0v665h475v-665h-475zM88 618l162 -243l161 243h-323zM60 575v-484c0 -1 161 242 161 242zM440 575l-162 -242l162 -243v485zM411 48l-161 242l-162 -242h323z" />
    <glyph glyph-name="divide" unicode="&#xf7;" 
d="M12 0v665h475v-665h-475zM88 618l162 -243l161 243h-323zM60 575v-484c0 -1 161 242 161 242zM440 575l-162 -242l162 -243v485zM411 48l-161 242l-162 -242h323z" />
    <glyph glyph-name="brokenbar" unicode="&#xa6;" 
d="M12 0v665h475v-665h-475zM88 618l162 -243l161 243h-323zM60 575v-484c0 -1 161 242 161 242zM440 575l-162 -242l162 -243v485zM411 48l-161 242l-162 -242h323z" />
    <glyph glyph-name="degree" unicode="&#xb0;" 
d="M12 0v665h475v-665h-475zM88 618l162 -243l161 243h-323zM60 575v-484c0 -1 161 242 161 242zM440 575l-162 -242l162 -243v485zM411 48l-161 242l-162 -242h323z" />
    <glyph glyph-name="thorn" unicode="&#xfe;" horiz-adv-x="531" 
d="M226 719v-7c-33 -1 -52 -4 -52 -61v-104h98c96 0 227 -16 227 -158c0 -90 -64 -151 -112 -182c-43 -28 -82 -35 -155 -35h-58v-103c0 -57 18 -61 52 -62v-7h-186v7c45 2 51 13 51 68v572c0 60 -17 64 -51 65v7h186zM174 528v-337h75c25 0 78 7 102 20c34 19 73 62 73 133
c0 45 -16 99 -55 139c-29 30 -67 45 -136 45h-59z" />
    <glyph glyph-name="threequarters" unicode="&#xbe;" 
d="M12 0v665h475v-665h-475zM88 618l162 -243l161 243h-323zM60 575v-484c0 -1 161 242 161 242zM440 575l-162 -242l162 -243v485zM411 48l-161 242l-162 -242h323z" />
    <glyph glyph-name="twosuperior" unicode="&#xb2;" horiz-adv-x="323" 
d="M321 416l-22 -64h-285l-1 7l7 6c81 64 198 157 198 258c0 65 -46 89 -84 89c-39 0 -84 -25 -111 -69l-20 9c18 27 55 80 147 80c86 0 131 -54 131 -103c0 -78 -96 -155 -199 -236v-2h168c29 0 34 0 55 25h16z" />
    <glyph glyph-name="registered" unicode="&#xae;" horiz-adv-x="760" 
d="M188 544h189c91 0 145 -46 145 -109c0 -81 -82 -102 -109 -109l103 -145c29 -41 43 -42 59 -43v-17h-90l-144 198h-37v-115c0 -43 0 -50 15 -59c8 -5 17 -7 43 -7v-17h-179v17c51 0 51 19 51 67v256c0 49 0 65 -46 66v17zM304 515v-175h15c47 0 124 14 124 89
c0 49 -36 93 -98 93c-18 0 -29 -3 -41 -7zM380 677c190 0 346 -153 346 -346c0 -191 -155 -346 -346 -346s-346 155 -346 346c0 193 156 346 346 346zM380 647c-173 0 -316 -139 -316 -316c0 -175 141 -316 316 -316s316 141 316 316c0 177 -143 316 -316 316z" />
    <glyph glyph-name="minus" unicode="&#x2212;" 
d="M12 0v665h475v-665h-475zM88 618l162 -243l161 243h-323zM60 575v-484c0 -1 161 242 161 242zM440 575l-162 -242l162 -243v485zM411 48l-161 242l-162 -242h323z" />
    <glyph glyph-name="eth" unicode="&#xf0;" horiz-adv-x="844" 
d="M90 353h-64v20h64v256c0 66 0 82 -51 83v7h329c189 0 258 -35 305 -66c79 -52 139 -146 139 -272c0 -155 -95 -283 -193 -339c-57 -33 -128 -42 -243 -42h-338v7c50 4 52 15 52 98v248zM432 353h-259v-207c0 -82 24 -127 194 -127c126 0 206 26 265 83
c61 59 101 159 101 247c0 108 -58 261 -243 325c-86 30 -169 30 -207 30h-110v-331h259v-20z" />
    <glyph glyph-name="multiply" unicode="&#xd7;" 
d="M12 0v665h475v-665h-475zM88 618l162 -243l161 243h-323zM60 575v-484c0 -1 161 242 161 242zM440 575l-162 -242l162 -243v485zM411 48l-161 242l-162 -242h323z" />
    <glyph glyph-name="threesuperior" unicode="&#xb3;" horiz-adv-x="333" 
d="M35 648l17 54c52 28 87 30 112 30c100 0 121 -47 121 -73c0 -48 -53 -74 -80 -86v-2c69 -12 98 -61 98 -104c0 -74 -76 -120 -151 -120c-67 0 -110 30 -137 51v22c40 -28 77 -54 127 -54c54 0 100 35 100 89c0 45 -33 86 -104 86c-16 0 -28 -2 -37 -4v17c1 1 8 2 10 3
c43 10 113 26 113 91c0 37 -26 67 -70 67c-54 0 -86 -44 -99 -62c-1 0 -4 -4 -4 -5h-16z" />
    <glyph glyph-name="copyright" unicode="&#xa9;" horiz-adv-x="760" 
d="M551 554l10 -137h-19c-9 28 -35 115 -148 115c-92 0 -157 -67 -157 -190c0 -32 0 -201 162 -201c55 0 109 19 152 79l18 -10c-45 -66 -106 -99 -187 -99c-137 0 -226 104 -226 217c0 119 95 226 243 226c33 0 47 -4 91 -18c10 -4 14 -4 18 -4c15 0 19 11 24 22h19z
M380 677c190 0 346 -153 346 -346c0 -191 -155 -346 -346 -346s-346 155 -346 346c0 193 156 346 346 346zM380 647c-173 0 -316 -139 -316 -316c0 -175 141 -316 316 -316s316 141 316 316c0 177 -143 316 -316 316z" />
    <glyph glyph-name="Aacute" unicode="&#xc1;" horiz-adv-x="688" 
d="M418 331h-210l-109 -272c-2 -5 -5 -12 -5 -13c-5 -11 -6 -16 -6 -23c0 -17 16 -16 24 -16v-7h-107v7c43 1 54 30 68 65l261 658h12l257 -636c0 -1 1 -5 3 -8l4 -11c10 -27 28 -68 73 -68v-7h-168v7c22 0 23 16 23 18c0 10 -6 27 -11 39c-2 4 -4 10 -5 11zM215 351h194
l-97 245zM350 920h88l-148 -151h-23z" />
    <glyph glyph-name="Acircumflex" unicode="&#xc2;" horiz-adv-x="688" 
d="M418 331h-210l-109 -272c-2 -5 -5 -12 -5 -13c-5 -11 -6 -16 -6 -23c0 -17 16 -16 24 -16v-7h-107v7c43 1 54 30 68 65l261 658h12l257 -636c0 -1 1 -5 3 -8l4 -11c10 -27 28 -68 73 -68v-7h-168v7c22 0 23 16 23 18c0 10 -6 27 -11 39c-2 4 -4 10 -5 11zM215 351h194
l-97 245zM371 920l129 -151h-22l-133 94l-133 -94h-23l129 151h53z" />
    <glyph glyph-name="Adieresis" unicode="&#xc4;" horiz-adv-x="688" 
d="M418 331h-210l-109 -272c-2 -5 -5 -12 -5 -13c-5 -11 -6 -16 -6 -23c0 -17 16 -16 24 -16v-7h-107v7c43 1 54 30 68 65l261 658h12l257 -636c0 -1 1 -5 3 -8l4 -11c10 -27 28 -68 73 -68v-7h-168v7c22 0 23 16 23 18c0 10 -6 27 -11 39c-2 4 -4 10 -5 11zM215 351h194
l-97 245zM394 815c0 26 20 46 45 46s45 -21 45 -46c0 -24 -20 -45 -45 -45s-45 20 -45 45zM205 815c0 26 20 46 45 46c26 0 45 -21 45 -46c0 -24 -19 -45 -45 -45c-25 0 -45 20 -45 45z" />
    <glyph glyph-name="Agrave" unicode="&#xc0;" horiz-adv-x="688" 
d="M418 331h-210l-109 -272c-2 -5 -5 -12 -5 -13c-5 -11 -6 -16 -6 -23c0 -17 16 -16 24 -16v-7h-107v7c43 1 54 30 68 65l261 658h12l257 -636c0 -1 1 -5 3 -8l4 -11c10 -27 28 -68 73 -68v-7h-168v7c22 0 23 16 23 18c0 10 -6 27 -11 39c-2 4 -4 10 -5 11zM215 351h194
l-97 245zM251 920h88l83 -151h-23z" />
    <glyph glyph-name="Aring" unicode="&#xc5;" horiz-adv-x="688" 
d="M418 331h-210l-109 -272c-2 -5 -5 -12 -5 -13c-5 -11 -6 -16 -6 -23c0 -17 16 -16 24 -16v-7h-107v7c43 1 54 30 68 65l261 658h12l257 -636c0 -1 1 -5 3 -8l4 -11c10 -27 28 -68 73 -68v-7h-168v7c22 0 23 16 23 18c0 10 -6 27 -11 39c-2 4 -4 10 -5 11zM215 351h194
l-97 245zM265 849c0 45 37 79 79 79c45 0 80 -36 80 -79s-34 -80 -80 -80c-43 0 -79 35 -79 80zM287 849c0 -31 26 -57 57 -57c34 0 58 28 58 57s-24 57 -58 57c-31 0 -57 -26 -57 -57z" />
    <glyph glyph-name="Atilde" unicode="&#xc3;" horiz-adv-x="688" 
d="M418 331h-210l-109 -272c-2 -5 -5 -12 -5 -13c-5 -11 -6 -16 -6 -23c0 -17 16 -16 24 -16v-7h-107v7c43 1 54 30 68 65l261 658h12l257 -636c0 -1 1 -5 3 -8l4 -11c10 -27 28 -68 73 -68v-7h-168v7c22 0 23 16 23 18c0 10 -6 27 -11 39c-2 4 -4 10 -5 11zM215 351h194
l-97 245zM198 770h-21c-2 73 58 104 102 104c28 0 52 -12 88 -30c30 -15 45 -23 67 -23c45 0 55 40 58 53h20c2 -61 -50 -104 -107 -104c-32 0 -52 10 -81 25c-47 24 -56 28 -74 28c-20 0 -50 -11 -52 -53z" />
    <glyph glyph-name="Ccedilla" unicode="&#xc7;" horiz-adv-x="771" 
d="M427 -10l-14 -27c39 -13 70 -36 70 -77c0 -61 -69 -107 -174 -102v20c120 3 123 52 123 64c0 38 -37 50 -77 52c20 28 20 28 47 70c-64 4 -158 16 -234 74c-77 59 -132 161 -132 280c0 185 138 386 410 386c91 0 151 -23 204 -44c1 0 7 -2 8 -3l27 -76h-7
c-30 31 -116 104 -246 104c-220 0 -328 -156 -328 -299c0 -130 90 -404 378 -404c108 0 226 38 275 96l6 -2l-50 -77c-115 -26 -174 -39 -286 -35z" />
    <glyph glyph-name="Eacute" unicode="&#xc9;" horiz-adv-x="542" 
d="M39 711v8h452v-99h-7c-21 75 -21 75 -74 75h-237v-323h220c28 0 48 0 51 24h7v-68h-7c-5 24 -22 24 -45 24h-226v-222c0 -102 26 -106 100 -106h127c87 0 114 0 124 75h7v-99h-492v7c28 2 51 3 51 51v581c0 53 -2 72 -51 72zM297 920h88l-148 -151h-23z" />
    <glyph glyph-name="Ecircumflex" unicode="&#xca;" horiz-adv-x="542" 
d="M39 711v8h452v-99h-7c-21 75 -21 75 -74 75h-237v-323h220c28 0 48 0 51 24h7v-68h-7c-5 24 -22 24 -45 24h-226v-222c0 -102 26 -106 100 -106h127c87 0 114 0 124 75h7v-99h-492v7c28 2 51 3 51 51v581c0 53 -2 72 -51 72zM298 920l129 -151h-22l-133 94l-133 -94h-23
l129 151h53z" />
    <glyph glyph-name="Edieresis" unicode="&#xcb;" horiz-adv-x="542" 
d="M39 711v8h452v-99h-7c-21 75 -21 75 -74 75h-237v-323h220c28 0 48 0 51 24h7v-68h-7c-5 24 -22 24 -45 24h-226v-222c0 -102 26 -106 100 -106h127c87 0 114 0 124 75h7v-99h-492v7c28 2 51 3 51 51v581c0 53 -2 72 -51 72zM321 815c0 26 20 46 45 46s45 -21 45 -46
c0 -24 -20 -45 -45 -45s-45 20 -45 45zM132 815c0 26 20 46 45 46c26 0 45 -21 45 -46c0 -24 -19 -45 -45 -45c-25 0 -45 20 -45 45z" />
    <glyph glyph-name="Egrave" unicode="&#xc8;" horiz-adv-x="542" 
d="M39 711v8h452v-99h-7c-21 75 -21 75 -74 75h-237v-323h220c28 0 48 0 51 24h7v-68h-7c-5 24 -22 24 -45 24h-226v-222c0 -102 26 -106 100 -106h127c87 0 114 0 124 75h7v-99h-492v7c28 2 51 3 51 51v581c0 53 -2 72 -51 72zM178 920h88l83 -151h-23z" />
    <glyph glyph-name="Iacute" unicode="&#xcd;" horiz-adv-x="260" 
d="M226 719v-7c-10 1 -54 2 -54 -38c-1 -6 -1 -32 -1 -37v-552c0 -57 0 -79 55 -78v-7h-192v7c52 2 54 15 54 77v547c0 53 0 84 -54 81v7h192zM136 920h88l-148 -151h-23z" />
    <glyph glyph-name="Icircumflex" unicode="&#xce;" horiz-adv-x="260" 
d="M226 719v-7c-10 1 -54 2 -54 -38c-1 -6 -1 -32 -1 -37v-552c0 -57 0 -79 55 -78v-7h-192v7c52 2 54 15 54 77v547c0 53 0 84 -54 81v7h192zM157 920l129 -151h-22l-133 94l-133 -94h-23l129 151h53z" />
    <glyph glyph-name="Idieresis" unicode="&#xcf;" horiz-adv-x="260" 
d="M226 719v-7c-10 1 -54 2 -54 -38c-1 -6 -1 -32 -1 -37v-552c0 -57 0 -79 55 -78v-7h-192v7c52 2 54 15 54 77v547c0 53 0 84 -54 81v7h192zM180 815c0 26 20 46 45 46s45 -21 45 -46c0 -24 -20 -45 -45 -45s-45 20 -45 45zM-9 815c0 26 20 46 45 46c26 0 45 -21 45 -46
c0 -24 -19 -45 -45 -45c-25 0 -45 20 -45 45z" />
    <glyph glyph-name="Igrave" unicode="&#xcc;" horiz-adv-x="260" 
d="M226 719v-7c-10 1 -54 2 -54 -38c-1 -6 -1 -32 -1 -37v-552c0 -57 0 -79 55 -78v-7h-192v7c52 2 54 15 54 77v547c0 53 0 84 -54 81v7h192zM37 920h88l83 -151h-23z" />
    <glyph glyph-name="Ntilde" unicode="&#xd1;" horiz-adv-x="802" 
d="M629 719h139v-7c-40 -1 -56 -11 -56 -66v-655l-574 611v-532c0 -57 13 -59 52 -63v-7h-138v7c55 2 55 18 55 76v487c0 49 0 146 -100 142v7h135l539 -574v508c0 53 -21 59 -52 59v7zM255 770h-21c-2 73 58 104 102 104c28 0 52 -12 88 -30c30 -15 45 -23 67 -23
c45 0 55 40 58 53h20c2 -61 -50 -104 -107 -104c-32 0 -52 10 -81 25c-47 24 -56 28 -74 28c-20 0 -50 -11 -52 -53z" />
    <glyph glyph-name="Oacute" unicode="&#xd3;" horiz-adv-x="813" 
d="M780 408c0 -221 -146 -419 -407 -419c-208 0 -340 155 -340 332c0 180 130 409 403 409c209 0 344 -145 344 -322zM735 320c0 233 -224 372 -366 372c-132 0 -281 -110 -281 -281c0 -201 165 -384 345 -384c154 0 302 129 302 293zM412 920h88l-148 -151h-23z" />
    <glyph glyph-name="Ocircumflex" unicode="&#xd4;" horiz-adv-x="813" 
d="M780 408c0 -221 -146 -419 -407 -419c-208 0 -340 155 -340 332c0 180 130 409 403 409c209 0 344 -145 344 -322zM735 320c0 233 -224 372 -366 372c-132 0 -281 -110 -281 -281c0 -201 165 -384 345 -384c154 0 302 129 302 293zM433 920l129 -151h-22l-133 94
l-133 -94h-23l129 151h53z" />
    <glyph glyph-name="Odieresis" unicode="&#xd6;" horiz-adv-x="813" 
d="M780 408c0 -221 -146 -419 -407 -419c-208 0 -340 155 -340 332c0 180 130 409 403 409c209 0 344 -145 344 -322zM735 320c0 233 -224 372 -366 372c-132 0 -281 -110 -281 -281c0 -201 165 -384 345 -384c154 0 302 129 302 293zM456 815c0 26 20 46 45 46
s45 -21 45 -46c0 -24 -20 -45 -45 -45s-45 20 -45 45zM267 815c0 26 20 46 45 46c26 0 45 -21 45 -46c0 -24 -19 -45 -45 -45c-25 0 -45 20 -45 45z" />
    <glyph glyph-name="Ograve" unicode="&#xd2;" horiz-adv-x="813" 
d="M780 408c0 -221 -146 -419 -407 -419c-208 0 -340 155 -340 332c0 180 130 409 403 409c209 0 344 -145 344 -322zM735 320c0 233 -224 372 -366 372c-132 0 -281 -110 -281 -281c0 -201 165 -384 345 -384c154 0 302 129 302 293zM313 920h88l83 -151h-23z" />
    <glyph glyph-name="Otilde" unicode="&#xd5;" horiz-adv-x="813" 
d="M780 408c0 -221 -146 -419 -407 -419c-208 0 -340 155 -340 332c0 180 130 409 403 409c209 0 344 -145 344 -322zM735 320c0 233 -224 372 -366 372c-132 0 -281 -110 -281 -281c0 -201 165 -384 345 -384c154 0 302 129 302 293zM260 770h-21c-2 73 58 104 102 104
c28 0 52 -12 88 -30c30 -15 45 -23 67 -23c45 0 55 40 58 53h20c2 -61 -50 -104 -107 -104c-32 0 -52 10 -81 25c-47 24 -56 28 -74 28c-20 0 -50 -11 -52 -53z" />
    <glyph glyph-name="Scaron" unicode="&#x160;" horiz-adv-x="479" 
d="M384 710l34 -90l-6 -1c-1 2 -6 7 -7 8c-27 31 -73 80 -161 80c-108 0 -160 -74 -160 -144c0 -96 84 -119 160 -143c68 -21 213 -64 213 -216c0 -102 -65 -204 -226 -204h-206v209h7c1 -110 34 -186 198 -186c163 0 187 107 187 148c0 80 -63 124 -179 159
c-127 38 -191 97 -191 203c0 91 68 197 208 197c52 0 89 -10 121 -18c2 0 7 -2 8 -2zM213 769l-129 151h22l133 -94l133 94h23l-129 -151h-53z" />
    <glyph glyph-name="Uacute" unicode="&#xda;" horiz-adv-x="750" 
d="M709 0h-136v111c-100 -112 -204 -116 -248 -116c-120 0 -232 64 -232 226v431c0 49 -5 61 -53 60v7h191v-7c-28 0 -55 0 -55 -55v-395c0 -32 2 -77 17 -114c37 -91 117 -116 173 -116c117 0 183 77 207 105v487c0 66 -5 88 -46 88h-7v7h189v-7c-30 -1 -53 -1 -53 -49
v-586c0 -45 0 -71 53 -70v-7zM381 920h88l-148 -151h-23z" />
    <glyph glyph-name="Ucircumflex" unicode="&#xdb;" horiz-adv-x="750" 
d="M709 0h-136v111c-100 -112 -204 -116 -248 -116c-120 0 -232 64 -232 226v431c0 49 -5 61 -53 60v7h191v-7c-28 0 -55 0 -55 -55v-395c0 -32 2 -77 17 -114c37 -91 117 -116 173 -116c117 0 183 77 207 105v487c0 66 -5 88 -46 88h-7v7h189v-7c-30 -1 -53 -1 -53 -49
v-586c0 -45 0 -71 53 -70v-7zM402 920l129 -151h-22l-133 94l-133 -94h-23l129 151h53z" />
    <glyph glyph-name="Udieresis" unicode="&#xdc;" horiz-adv-x="750" 
d="M709 0h-136v111c-100 -112 -204 -116 -248 -116c-120 0 -232 64 -232 226v431c0 49 -5 61 -53 60v7h191v-7c-28 0 -55 0 -55 -55v-395c0 -32 2 -77 17 -114c37 -91 117 -116 173 -116c117 0 183 77 207 105v487c0 66 -5 88 -46 88h-7v7h189v-7c-30 -1 -53 -1 -53 -49
v-586c0 -45 0 -71 53 -70v-7zM425 815c0 26 20 46 45 46s45 -21 45 -46c0 -24 -20 -45 -45 -45s-45 20 -45 45zM236 815c0 26 20 46 45 46c26 0 45 -21 45 -46c0 -24 -19 -45 -45 -45c-25 0 -45 20 -45 45z" />
    <glyph glyph-name="Ugrave" unicode="&#xd9;" horiz-adv-x="750" 
d="M709 0h-136v111c-100 -112 -204 -116 -248 -116c-120 0 -232 64 -232 226v431c0 49 -5 61 -53 60v7h191v-7c-28 0 -55 0 -55 -55v-395c0 -32 2 -77 17 -114c37 -91 117 -116 173 -116c117 0 183 77 207 105v487c0 66 -5 88 -46 88h-7v7h189v-7c-30 -1 -53 -1 -53 -49
v-586c0 -45 0 -71 53 -70v-7zM282 920h88l83 -151h-23z" />
    <glyph glyph-name="Yacute" unicode="&#xdd;" horiz-adv-x="573" 
d="M459 719h108v-7c-26 -1 -42 -10 -64 -44l-176 -266v-330c0 -55 9 -64 55 -65v-7h-192v7c19 -1 55 -2 55 48l-1 16v304l-176 292c-7 12 -27 46 -62 45v7h170v-7c-8 0 -24 -1 -24 -18c0 -8 11 -26 12 -29l145 -239l159 241l2 2c3 5 13 18 13 27c0 16 -16 16 -21 16h-3v7z
M292 920h88l-148 -151h-23z" />
    <glyph glyph-name="Ydieresis" unicode="&#x178;" horiz-adv-x="573" 
d="M459 719h108v-7c-26 -1 -42 -10 -64 -44l-176 -266v-330c0 -55 9 -64 55 -65v-7h-192v7c19 -1 55 -2 55 48l-1 16v304l-176 292c-7 12 -27 46 -62 45v7h170v-7c-8 0 -24 -1 -24 -18c0 -8 11 -26 12 -29l145 -239l159 241l2 2c3 5 13 18 13 27c0 16 -16 16 -21 16h-3v7z
M336 815c0 26 20 46 45 46s45 -21 45 -46c0 -24 -20 -45 -45 -45s-45 20 -45 45zM147 815c0 26 20 46 45 46c26 0 45 -21 45 -46c0 -24 -19 -45 -45 -45c-25 0 -45 20 -45 45z" />
    <glyph glyph-name="Zcaron" unicode="&#x17d;" horiz-adv-x="708" 
d="M689 113v-113h-682l558 692h-374c-66 0 -79 -12 -88 -71h-7l4 98h592l-560 -692h477c47 0 68 7 73 86h7zM328 769l-129 151h22l133 -94l133 94h23l-129 -151h-53z" />
    <glyph glyph-name="aacute" unicode="&#xe1;" horiz-adv-x="688" 
d="M418 331h-210l-109 -272c-2 -5 -5 -12 -5 -13c-5 -11 -6 -16 -6 -23c0 -17 16 -16 24 -16v-7h-107v7c43 1 54 30 68 65l261 658h12l257 -636c0 -1 1 -5 3 -8l4 -11c10 -27 28 -68 73 -68v-7h-168v7c22 0 23 16 23 18c0 10 -6 27 -11 39c-2 4 -4 10 -5 11zM215 351h194
l-97 245zM350 920h88l-148 -151h-23z" />
    <glyph glyph-name="acircumflex" unicode="&#xe2;" horiz-adv-x="688" 
d="M418 331h-210l-109 -272c-2 -5 -5 -12 -5 -13c-5 -11 -6 -16 -6 -23c0 -17 16 -16 24 -16v-7h-107v7c43 1 54 30 68 65l261 658h12l257 -636c0 -1 1 -5 3 -8l4 -11c10 -27 28 -68 73 -68v-7h-168v7c22 0 23 16 23 18c0 10 -6 27 -11 39c-2 4 -4 10 -5 11zM215 351h194
l-97 245zM371 920l129 -151h-22l-133 94l-133 -94h-23l129 151h53z" />
    <glyph glyph-name="adieresis" unicode="&#xe4;" horiz-adv-x="688" 
d="M418 331h-210l-109 -272c-2 -5 -5 -12 -5 -13c-5 -11 -6 -16 -6 -23c0 -17 16 -16 24 -16v-7h-107v7c43 1 54 30 68 65l261 658h12l257 -636c0 -1 1 -5 3 -8l4 -11c10 -27 28 -68 73 -68v-7h-168v7c22 0 23 16 23 18c0 10 -6 27 -11 39c-2 4 -4 10 -5 11zM215 351h194
l-97 245zM394 815c0 26 20 46 45 46s45 -21 45 -46c0 -24 -20 -45 -45 -45s-45 20 -45 45zM205 815c0 26 20 46 45 46c26 0 45 -21 45 -46c0 -24 -19 -45 -45 -45c-25 0 -45 20 -45 45z" />
    <glyph glyph-name="agrave" unicode="&#xe0;" horiz-adv-x="688" 
d="M418 331h-210l-109 -272c-2 -5 -5 -12 -5 -13c-5 -11 -6 -16 -6 -23c0 -17 16 -16 24 -16v-7h-107v7c43 1 54 30 68 65l261 658h12l257 -636c0 -1 1 -5 3 -8l4 -11c10 -27 28 -68 73 -68v-7h-168v7c22 0 23 16 23 18c0 10 -6 27 -11 39c-2 4 -4 10 -5 11zM215 351h194
l-97 245zM251 920h88l83 -151h-23z" />
    <glyph glyph-name="aring" unicode="&#xe5;" horiz-adv-x="688" 
d="M418 331h-210l-109 -272c-2 -5 -5 -12 -5 -13c-5 -11 -6 -16 -6 -23c0 -17 16 -16 24 -16v-7h-107v7c43 1 54 30 68 65l261 658h12l257 -636c0 -1 1 -5 3 -8l4 -11c10 -27 28 -68 73 -68v-7h-168v7c22 0 23 16 23 18c0 10 -6 27 -11 39c-2 4 -4 10 -5 11zM215 351h194
l-97 245zM265 849c0 45 37 79 79 79c45 0 80 -36 80 -79s-34 -80 -80 -80c-43 0 -79 35 -79 80zM287 849c0 -31 26 -57 57 -57c34 0 58 28 58 57s-24 57 -58 57c-31 0 -57 -26 -57 -57z" />
    <glyph glyph-name="atilde" unicode="&#xe3;" horiz-adv-x="688" 
d="M418 331h-210l-109 -272c-2 -5 -5 -12 -5 -13c-5 -11 -6 -16 -6 -23c0 -17 16 -16 24 -16v-7h-107v7c43 1 54 30 68 65l261 658h12l257 -636c0 -1 1 -5 3 -8l4 -11c10 -27 28 -68 73 -68v-7h-168v7c22 0 23 16 23 18c0 10 -6 27 -11 39c-2 4 -4 10 -5 11zM215 351h194
l-97 245zM198 770h-21c-2 73 58 104 102 104c28 0 52 -12 88 -30c30 -15 45 -23 67 -23c45 0 55 40 58 53h20c2 -61 -50 -104 -107 -104c-32 0 -52 10 -81 25c-47 24 -56 28 -74 28c-20 0 -50 -11 -52 -53z" />
    <glyph glyph-name="ccedilla" unicode="&#xe7;" horiz-adv-x="771" 
d="M427 -10l-14 -27c39 -13 70 -36 70 -77c0 -61 -69 -107 -174 -102v20c120 3 123 52 123 64c0 38 -37 50 -77 52c20 28 20 28 47 70c-64 4 -158 16 -234 74c-77 59 -132 161 -132 280c0 185 138 386 410 386c91 0 151 -23 204 -44c1 0 7 -2 8 -3l27 -76h-7
c-30 31 -116 104 -246 104c-220 0 -328 -156 -328 -299c0 -130 90 -404 378 -404c108 0 226 38 275 96l6 -2l-50 -77c-115 -26 -174 -39 -286 -35z" />
    <glyph glyph-name="eacute" unicode="&#xe9;" horiz-adv-x="542" 
d="M39 711v8h452v-99h-7c-21 75 -21 75 -74 75h-237v-323h220c28 0 48 0 51 24h7v-68h-7c-5 24 -22 24 -45 24h-226v-222c0 -102 26 -106 100 -106h127c87 0 114 0 124 75h7v-99h-492v7c28 2 51 3 51 51v581c0 53 -2 72 -51 72zM277 920h88l-148 -151h-23z" />
    <glyph glyph-name="ecircumflex" unicode="&#xea;" horiz-adv-x="542" 
d="M39 711v8h452v-99h-7c-21 75 -21 75 -74 75h-237v-323h220c28 0 48 0 51 24h7v-68h-7c-5 24 -22 24 -45 24h-226v-222c0 -102 26 -106 100 -106h127c87 0 114 0 124 75h7v-99h-492v7c28 2 51 3 51 51v581c0 53 -2 72 -51 72zM298 920l129 -151h-22l-133 94l-133 -94h-23
l129 151h53z" />
    <glyph glyph-name="edieresis" unicode="&#xeb;" horiz-adv-x="542" 
d="M39 711v8h452v-99h-7c-21 75 -21 75 -74 75h-237v-323h220c28 0 48 0 51 24h7v-68h-7c-5 24 -22 24 -45 24h-226v-222c0 -102 26 -106 100 -106h127c87 0 114 0 124 75h7v-99h-492v7c28 2 51 3 51 51v581c0 53 -2 72 -51 72zM321 815c0 26 20 46 45 46s45 -21 45 -46
c0 -24 -20 -45 -45 -45s-45 20 -45 45zM132 815c0 26 20 46 45 46c26 0 45 -21 45 -46c0 -24 -19 -45 -45 -45c-25 0 -45 20 -45 45z" />
    <glyph glyph-name="egrave" unicode="&#xe8;" horiz-adv-x="542" 
d="M39 711v8h452v-99h-7c-21 75 -21 75 -74 75h-237v-323h220c28 0 48 0 51 24h7v-68h-7c-5 24 -22 24 -45 24h-226v-222c0 -102 26 -106 100 -106h127c87 0 114 0 124 75h7v-99h-492v7c28 2 51 3 51 51v581c0 53 -2 72 -51 72zM178 920h88l83 -151h-23z" />
    <glyph glyph-name="iacute" unicode="&#xed;" horiz-adv-x="260" 
d="M226 719v-7c-10 1 -54 2 -54 -38c-1 -6 -1 -32 -1 -37v-552c0 -57 0 -79 55 -78v-7h-192v7c52 2 54 15 54 77v547c0 53 0 84 -54 81v7h192zM136 920h88l-148 -151h-23z" />
    <glyph glyph-name="icircumflex" unicode="&#xee;" horiz-adv-x="260" 
d="M226 719v-7c-10 1 -54 2 -54 -38c-1 -6 -1 -32 -1 -37v-552c0 -57 0 -79 55 -78v-7h-192v7c52 2 54 15 54 77v547c0 53 0 84 -54 81v7h192zM157 920l129 -151h-22l-133 94l-133 -94h-23l129 151h53z" />
    <glyph glyph-name="idieresis" unicode="&#xef;" horiz-adv-x="260" 
d="M226 719v-7c-10 1 -54 2 -54 -38c-1 -6 -1 -32 -1 -37v-552c0 -57 0 -79 55 -78v-7h-192v7c52 2 54 15 54 77v547c0 53 0 84 -54 81v7h192zM180 815c0 26 20 46 45 46s45 -21 45 -46c0 -24 -20 -45 -45 -45s-45 20 -45 45zM-9 815c0 26 20 46 45 46c26 0 45 -21 45 -46
c0 -24 -19 -45 -45 -45c-25 0 -45 20 -45 45z" />
    <glyph glyph-name="igrave" unicode="&#xec;" horiz-adv-x="260" 
d="M226 719v-7c-10 1 -54 2 -54 -38c-1 -6 -1 -32 -1 -37v-552c0 -57 0 -79 55 -78v-7h-192v7c52 2 54 15 54 77v547c0 53 0 84 -54 81v7h192zM37 920h88l83 -151h-23z" />
    <glyph glyph-name="ntilde" unicode="&#xf1;" horiz-adv-x="802" 
d="M629 719h139v-7c-40 -1 -56 -11 -56 -66v-655l-574 611v-532c0 -57 13 -59 52 -63v-7h-138v7c55 2 55 18 55 76v487c0 49 0 146 -100 142v7h135l539 -574v508c0 53 -21 59 -52 59v7zM255 770h-21c-2 73 58 104 102 104c28 0 52 -12 88 -30c30 -15 45 -23 67 -23
c45 0 55 40 58 53h20c2 -61 -50 -104 -107 -104c-32 0 -52 10 -81 25c-47 24 -56 28 -74 28c-20 0 -50 -11 -52 -53z" />
    <glyph glyph-name="oacute" unicode="&#xf3;" horiz-adv-x="813" 
d="M780 408c0 -221 -146 -419 -407 -419c-208 0 -340 155 -340 332c0 180 130 409 403 409c209 0 344 -145 344 -322zM735 320c0 233 -224 372 -366 372c-132 0 -281 -110 -281 -281c0 -201 165 -384 345 -384c154 0 302 129 302 293zM412 920h88l-148 -151h-23z" />
    <glyph glyph-name="ocircumflex" unicode="&#xf4;" horiz-adv-x="813" 
d="M780 408c0 -221 -146 -419 -407 -419c-208 0 -340 155 -340 332c0 180 130 409 403 409c209 0 344 -145 344 -322zM735 320c0 233 -224 372 -366 372c-132 0 -281 -110 -281 -281c0 -201 165 -384 345 -384c154 0 302 129 302 293zM433 920l129 -151h-22l-133 94
l-133 -94h-23l129 151h53z" />
    <glyph glyph-name="odieresis" unicode="&#xf6;" horiz-adv-x="813" 
d="M780 408c0 -221 -146 -419 -407 -419c-208 0 -340 155 -340 332c0 180 130 409 403 409c209 0 344 -145 344 -322zM735 320c0 233 -224 372 -366 372c-132 0 -281 -110 -281 -281c0 -201 165 -384 345 -384c154 0 302 129 302 293zM456 815c0 26 20 46 45 46
s45 -21 45 -46c0 -24 -20 -45 -45 -45s-45 20 -45 45zM267 815c0 26 20 46 45 46c26 0 45 -21 45 -46c0 -24 -19 -45 -45 -45c-25 0 -45 20 -45 45z" />
    <glyph glyph-name="ograve" unicode="&#xf2;" horiz-adv-x="813" 
d="M780 408c0 -221 -146 -419 -407 -419c-208 0 -340 155 -340 332c0 180 130 409 403 409c209 0 344 -145 344 -322zM735 320c0 233 -224 372 -366 372c-132 0 -281 -110 -281 -281c0 -201 165 -384 345 -384c154 0 302 129 302 293zM313 920h88l83 -151h-23z" />
    <glyph glyph-name="otilde" unicode="&#xf5;" horiz-adv-x="813" 
d="M780 408c0 -221 -146 -419 -407 -419c-208 0 -340 155 -340 332c0 180 130 409 403 409c209 0 344 -145 344 -322zM735 320c0 233 -224 372 -366 372c-132 0 -281 -110 -281 -281c0 -201 165 -384 345 -384c154 0 302 129 302 293zM260 770h-21c-2 73 58 104 102 104
c28 0 52 -12 88 -30c30 -15 45 -23 67 -23c45 0 55 40 58 53h20c2 -61 -50 -104 -107 -104c-32 0 -52 10 -81 25c-47 24 -56 28 -74 28c-20 0 -50 -11 -52 -53z" />
    <glyph glyph-name="scaron" unicode="&#x161;" horiz-adv-x="479" 
d="M384 710l34 -90l-6 -1c-1 2 -6 7 -7 8c-27 31 -73 80 -161 80c-108 0 -160 -74 -160 -144c0 -96 84 -119 160 -143c68 -21 213 -64 213 -216c0 -90 -53 -155 -111 -184c-27 -13 -109 -20 -129 -20h-192v209h7c1 -110 34 -186 198 -186c163 0 187 107 187 148
c0 96 -91 129 -179 159c-83 28 -107 41 -132 65c-35 34 -59 82 -59 138c0 104 75 197 208 197c52 0 89 -10 121 -18c2 0 7 -2 8 -2zM213 769l-129 151h22l133 -94l133 94h23l-129 -151h-53z" />
    <glyph glyph-name="uacute" unicode="&#xfa;" horiz-adv-x="750" 
d="M709 0h-136v111c-100 -112 -204 -116 -248 -116c-120 0 -232 64 -232 226v431c0 49 -5 61 -53 60v7h191v-7c-28 0 -55 0 -55 -55v-395c0 -32 2 -77 17 -114c37 -91 117 -116 173 -116c117 0 183 77 207 105v487c0 66 -5 88 -46 88h-7v7h189v-7c-30 -1 -53 -1 -53 -49
v-586c0 -45 0 -71 53 -70v-7zM381 920h88l-148 -151h-23z" />
    <glyph glyph-name="ucircumflex" unicode="&#xfb;" horiz-adv-x="750" 
d="M709 0h-136v111c-100 -112 -204 -116 -248 -116c-120 0 -232 64 -232 226v431c0 49 -5 61 -53 60v7h191v-7c-28 0 -55 0 -55 -55v-395c0 -32 2 -77 17 -114c37 -91 117 -116 173 -116c117 0 183 77 207 105v487c0 66 -5 88 -46 88h-7v7h189v-7c-30 -1 -53 -1 -53 -49
v-586c0 -45 0 -71 53 -70v-7zM402 920l129 -151h-22l-133 94l-133 -94h-23l129 151h53z" />
    <glyph glyph-name="udieresis" unicode="&#xfc;" horiz-adv-x="750" 
d="M709 0h-136v111c-100 -112 -204 -116 -248 -116c-120 0 -232 64 -232 226v431c0 49 -5 61 -53 60v7h191v-7c-28 0 -55 0 -55 -55v-395c0 -32 2 -77 17 -114c37 -91 117 -116 173 -116c117 0 183 77 207 105v487c0 66 -5 88 -46 88h-7v7h189v-7c-30 -1 -53 -1 -53 -49
v-586c0 -45 0 -71 53 -70v-7zM425 815c0 26 20 46 45 46s45 -21 45 -46c0 -24 -20 -45 -45 -45s-45 20 -45 45zM236 815c0 26 20 46 45 46c26 0 45 -21 45 -46c0 -24 -19 -45 -45 -45c-25 0 -45 20 -45 45z" />
    <glyph glyph-name="ugrave" unicode="&#xf9;" horiz-adv-x="750" 
d="M709 0h-136v111c-100 -112 -204 -116 -248 -116c-120 0 -232 64 -232 226v431c0 49 -5 61 -53 60v7h191v-7c-28 0 -55 0 -55 -55v-395c0 -32 2 -77 17 -114c37 -91 117 -116 173 -116c117 0 183 77 207 105v487c0 66 -5 88 -46 88h-7v7h189v-7c-30 -1 -53 -1 -53 -49
v-586c0 -45 0 -71 53 -70v-7zM282 920h88l83 -151h-23z" />
    <glyph glyph-name="yacute" unicode="&#xfd;" horiz-adv-x="573" 
d="M459 719h108v-7c-26 -1 -42 -10 -64 -44l-176 -266v-330c0 -55 9 -64 55 -65v-7h-192v7c19 -1 55 -2 55 48l-1 16v304l-176 292c-7 12 -27 46 -62 45v7h170v-7c-8 0 -24 -1 -24 -18c0 -8 11 -26 12 -29l145 -239l159 241l2 2c3 5 13 18 13 27c0 16 -16 16 -21 16h-3v7z
M292 920h88l-148 -151h-23z" />
    <glyph glyph-name="ydieresis" unicode="&#xff;" horiz-adv-x="573" 
d="M459 719h108v-7c-26 -1 -42 -10 -64 -44l-176 -266v-330c0 -55 9 -64 55 -65v-7h-192v7c19 -1 55 -2 55 48l-1 16v304l-176 292c-7 12 -27 46 -62 45v7h170v-7c-8 0 -24 -1 -24 -18c0 -8 11 -26 12 -29l145 -239l159 241l2 2c3 5 13 18 13 27c0 16 -16 16 -21 16h-3v7z
M336 815c0 26 20 46 45 46s45 -21 45 -46c0 -24 -20 -45 -45 -45s-45 20 -45 45zM147 815c0 26 20 46 45 46c26 0 45 -21 45 -46c0 -24 -19 -45 -45 -45c-25 0 -45 20 -45 45z" />
    <glyph glyph-name="zcaron" unicode="&#x17e;" horiz-adv-x="708" 
d="M689 113v-113h-682l558 692h-374c-66 0 -79 -12 -88 -71h-7l4 98h592l-560 -692h477c47 0 68 7 73 86h7zM328 769l-129 151h22l133 -94l133 94h23l-129 -151h-53z" />
    <glyph glyph-name="uni00A0" unicode="&#xa0;" horiz-adv-x="250" 
 />
    <glyph glyph-name="uni00AD" unicode="&#xad;" horiz-adv-x="250" 
d="M22 339v41h206v-41h-206z" />
    <glyph glyph-name="uni02C9" unicode="&#x2c9;" horiz-adv-x="333" 
d="M376 868v-36h-400v36h400z" />
    <glyph glyph-name="uni03A9" unicode="&#x3a9;" 
d="M12 0v665h475v-665h-475zM88 618l162 -243l161 243h-323zM60 575v-484c0 -1 161 242 161 242zM440 575l-162 -242l162 -243v485zM411 48l-161 242l-162 -242h323z" />
    <glyph glyph-name="uni03BC" unicode="&#x3bc;" 
d="M12 0v665h475v-665h-475zM88 618l162 -243l161 243h-323zM60 575v-484c0 -1 161 242 161 242zM440 575l-162 -242l162 -243v485zM411 48l-161 242l-162 -242h323z" />
    <glyph glyph-name="pi" unicode="&#x3c0;" 
d="M12 0v665h475v-665h-475zM88 618l162 -243l161 243h-323zM60 575v-484c0 -1 161 242 161 242zM440 575l-162 -242l162 -243v485zM411 48l-161 242l-162 -242h323z" />
    <glyph glyph-name="Euro" unicode="&#x20ac;" horiz-adv-x="604" 
d="M570 71c-72 -72 -128 -82 -198 -82c-130 0 -181 30 -230 73c-53 46 -100 130 -105 251h-34l4 21h29v10c0 15 1 30 2 44h-35l4 21h32c20 163 110 324 332 324c71 0 116 -22 157 -40l22 -66h-7c-46 65 -107 86 -186 86c-150 0 -243 -94 -243 -301v-3h379l-4 -21h-375
c1 -14 1 -36 3 -54h360l-4 -21h-354c17 -195 111 -305 278 -305c63 0 109 22 165 74z" />
    <glyph glyph-name="litre" unicode="&#x2113;" 
d="M12 0v665h475v-665h-475zM88 618l162 -243l161 243h-323zM60 575v-484c0 -1 161 242 161 242zM440 575l-162 -242l162 -243v485zM411 48l-161 242l-162 -242h323z" />
    <glyph glyph-name="Omega" unicode="&#x2126;" 
d="M12 0v665h475v-665h-475zM88 618l162 -243l161 243h-323zM60 575v-484c0 -1 161 242 161 242zM440 575l-162 -242l162 -243v485zM411 48l-161 242l-162 -242h323z" />
    <glyph glyph-name="estimated" unicode="&#x212e;" 
d="M12 0v665h475v-665h-475zM88 618l162 -243l161 243h-323zM60 575v-484c0 -1 161 242 161 242zM440 575l-162 -242l162 -243v485zM411 48l-161 242l-162 -242h323z" />
    <glyph glyph-name="partialdiff" unicode="&#x2202;" 
d="M12 0v665h475v-665h-475zM88 618l162 -243l161 243h-323zM60 575v-484c0 -1 161 242 161 242zM440 575l-162 -242l162 -243v485zM411 48l-161 242l-162 -242h323z" />
    <glyph glyph-name="Delta" unicode="&#x2206;" 
d="M12 0v665h475v-665h-475zM88 618l162 -243l161 243h-323zM60 575v-484c0 -1 161 242 161 242zM440 575l-162 -242l162 -243v485zM411 48l-161 242l-162 -242h323z" />
    <glyph glyph-name="product" unicode="&#x220f;" 
d="M12 0v665h475v-665h-475zM88 618l162 -243l161 243h-323zM60 575v-484c0 -1 161 242 161 242zM440 575l-162 -242l162 -243v485zM411 48l-161 242l-162 -242h323z" />
    <glyph glyph-name="summation" unicode="&#x2211;" 
d="M12 0v665h475v-665h-475zM88 618l162 -243l161 243h-323zM60 575v-484c0 -1 161 242 161 242zM440 575l-162 -242l162 -243v485zM411 48l-161 242l-162 -242h323z" />
    <glyph glyph-name="uni2215" unicode="&#x2215;" 
d="M12 0v665h475v-665h-475zM88 618l162 -243l161 243h-323zM60 575v-484c0 -1 161 242 161 242zM440 575l-162 -242l162 -243v485zM411 48l-161 242l-162 -242h323z" />
    <glyph glyph-name="uni2219" unicode="&#x2219;" horiz-adv-x="167" 
d="M83 414c30 0 53 -23 53 -53c0 -29 -23 -53 -53 -53c-29 0 -53 24 -53 53c0 30 24 53 53 53z" />
    <glyph glyph-name="radical" unicode="&#x221a;" 
d="M12 0v665h475v-665h-475zM88 618l162 -243l161 243h-323zM60 575v-484c0 -1 161 242 161 242zM440 575l-162 -242l162 -243v485zM411 48l-161 242l-162 -242h323z" />
    <glyph glyph-name="infinity" unicode="&#x221e;" 
d="M12 0v665h475v-665h-475zM88 618l162 -243l161 243h-323zM60 575v-484c0 -1 161 242 161 242zM440 575l-162 -242l162 -243v485zM411 48l-161 242l-162 -242h323z" />
    <glyph glyph-name="integral" unicode="&#x222b;" 
d="M12 0v665h475v-665h-475zM88 618l162 -243l161 243h-323zM60 575v-484c0 -1 161 242 161 242zM440 575l-162 -242l162 -243v485zM411 48l-161 242l-162 -242h323z" />
    <glyph glyph-name="approxequal" unicode="&#x2248;" 
d="M12 0v665h475v-665h-475zM88 618l162 -243l161 243h-323zM60 575v-484c0 -1 161 242 161 242zM440 575l-162 -242l162 -243v485zM411 48l-161 242l-162 -242h323z" />
    <glyph glyph-name="notequal" unicode="&#x2260;" 
d="M12 0v665h475v-665h-475zM88 618l162 -243l161 243h-323zM60 575v-484c0 -1 161 242 161 242zM440 575l-162 -242l162 -243v485zM411 48l-161 242l-162 -242h323z" />
    <glyph glyph-name="lessequal" unicode="&#x2264;" 
d="M12 0v665h475v-665h-475zM88 618l162 -243l161 243h-323zM60 575v-484c0 -1 161 242 161 242zM440 575l-162 -242l162 -243v485zM411 48l-161 242l-162 -242h323z" />
    <glyph glyph-name="greaterequal" unicode="&#x2265;" 
d="M12 0v665h475v-665h-475zM88 618l162 -243l161 243h-323zM60 575v-484c0 -1 161 242 161 242zM440 575l-162 -242l162 -243v485zM411 48l-161 242l-162 -242h323z" />
    <glyph glyph-name="lozenge" unicode="&#x25ca;" 
d="M12 0v665h475v-665h-475zM88 618l162 -243l161 243h-323zM60 575v-484c0 -1 161 242 161 242zM440 575l-162 -242l162 -243v485zM411 48l-161 242l-162 -242h323z" />
    </font>
</defs>
</svg>
